<svg width="19" height="19" viewBox="0 0 19 19" fill="none" xmlns="http://www.w3.org/2000/svg">
<path d="M18.1744 14.7622H9.3716C9.0437 14.7622 8.77785 15.028 8.77785 15.3559V17.205L4.52334 13.953L9.67516 10.0153C9.70262 10.0004 9.73201 9.99124 9.75754 9.97165L15.5831 5.51852C15.7301 5.4063 15.8162 5.23174 15.8162 5.04679C15.8162 4.86183 15.7301 4.68727 15.5831 4.57505L9.75754 0.121927C9.57808 -0.0149327 9.33598 -0.0386827 9.13395 0.0613642C8.93134 0.161411 8.80309 0.367739 8.80309 0.593661V3.0503H0.59375C0.265852 3.0503 0 3.31615 0 3.64405C0 3.97195 0.265852 4.2378 0.59375 4.2378H9.39684C9.72473 4.2378 9.99059 3.97195 9.99059 3.64405V1.79467L14.2448 5.04664L9.12341 8.96138C9.08438 8.97949 9.04652 9.00101 9.0109 9.02818L3.18502 13.4813C3.03807 13.5935 2.95198 13.7681 2.95198 13.953C2.95198 14.138 3.03807 14.3126 3.18502 14.4248L9.0109 18.8779C9.11644 18.9585 9.24365 18.9999 9.3716 18.9999C9.46126 18.9999 9.55136 18.9796 9.63478 18.9385C9.8371 18.8384 9.96535 18.6321 9.96535 18.4062V15.9497H18.1744C18.5023 15.9497 18.7681 15.6838 18.7681 15.3559C18.7681 15.028 18.5023 14.7622 18.1744 14.7622Z" fill="white"/>
</svg>
