<svg width="25" height="23" viewBox="0 0 25 23" fill="none" xmlns="http://www.w3.org/2000/svg">
<path fill-rule="evenodd" clip-rule="evenodd" d="M20.3323 9.61169H21.8625C22.4202 9.61169 22.8735 10.0603 22.8735 10.6117V12.0133C22.8735 12.5647 22.4202 13.0133 21.8625 13.0133H20.332C20.1533 13.0133 19.937 13.1735 19.8872 13.3433L19.8735 13.381L18.9639 15.5568C18.8774 15.71 18.9143 15.9723 19.0398 16.0962L20.241 17.2845C20.4314 17.4728 20.5361 17.724 20.5361 17.9915C20.5361 18.259 20.4314 18.5103 20.241 18.6985L19.2388 19.6897C19.0486 19.8781 18.7944 19.9817 18.5242 19.9817C18.2537 19.9817 17.9998 19.8781 17.8093 19.6897L16.6079 18.5015C16.4893 18.3838 16.2095 18.3457 16.0625 18.4265L16.0225 18.4458L13.8247 19.3397C13.6533 19.3893 13.4912 19.603 13.4912 19.7798V21.6248C13.4912 22.1763 13.0376 22.6248 12.4802 22.6248H11.0632C10.5056 22.6248 10.0522 22.1763 10.0522 21.6248V19.7798C10.0522 19.604 9.89111 19.3922 9.72021 19.3442L9.68335 19.3318L7.62988 18.5177C7.479 18.4377 7.19409 18.479 7.07349 18.5988L5.73389 19.924C5.35303 20.301 4.68506 20.301 4.3042 19.924L3.30249 18.9327C3.11206 18.7445 3.00708 18.4933 3.00708 18.2257C3.00708 17.9583 3.11206 17.707 3.30249 17.5188L4.60205 16.233C4.72583 16.1105 4.76001 15.8533 4.67236 15.703L4.65137 15.6617L3.65967 13.3438C3.60864 13.174 3.39087 13.0129 3.21143 13.0129H1.01099C0.453369 13.0129 0 12.5645 0 12.0129V10.6115C0 10.0601 0.453369 9.61145 1.01099 9.61145H3.21167C3.39014 9.61145 3.60645 9.45129 3.65649 9.28149L3.66992 9.24377L4.57959 7.06775C4.66602 6.91455 4.62939 6.65222 4.50366 6.52795L3.06567 5.10547C2.67139 4.7157 2.67139 4.08154 3.06567 3.69153L4.06738 2.70044C4.25781 2.51221 4.51172 2.40845 4.78223 2.40845C5.05273 2.40845 5.30664 2.51221 5.49707 2.70044L6.93506 4.12305C7.05444 4.24097 7.33447 4.2793 7.48071 4.198L7.52124 4.17871L9.71924 3.28503C9.89062 3.23547 10.0527 3.02173 10.0527 2.84497V1C10.0527 0.448486 10.5061 0 11.0637 0H12.4807C13.0383 0 13.4917 0.448486 13.4917 1V2.84497C13.4917 3.02246 13.6541 3.23804 13.8259 3.28845L13.8662 3.30273L16.2112 4.29004C16.356 4.37305 16.6284 4.33752 16.7471 4.22046L18.0469 2.93506C18.2373 2.7467 18.4912 2.64294 18.7617 2.64294C19.0322 2.64294 19.2861 2.7467 19.4766 2.93506L20.4785 3.92578C20.8726 4.3158 20.8726 4.94995 20.4785 5.33997L19.1387 6.66528C19.0117 6.79126 18.9717 7.05872 19.0569 7.2157L19.0745 7.25378L19.8921 9.2832C19.9404 9.45203 20.1545 9.61169 20.3323 9.61169ZM21.8628 12.2633C21.9998 12.2633 22.1155 12.1488 22.1155 12.0133V10.6115C22.1155 10.476 21.9998 10.3615 21.8628 10.3615H20.3325C19.8247 10.3615 19.3184 9.98853 19.1692 9.50879L18.3777 7.54895C18.1497 7.10376 18.2463 6.48755 18.6028 6.13477L19.9426 4.80945C20.0393 4.71375 20.0393 4.55176 19.9426 4.45605L18.9404 3.46521C18.8462 3.37146 18.6772 3.3717 18.583 3.46521L17.2832 4.75073C17.0662 4.96545 16.751 5.08875 16.4182 5.08875C16.2148 5.08875 16.0205 5.0415 15.8545 4.95203L13.5874 4.00049C13.1067 3.84729 12.7332 3.34448 12.7332 2.84497V1C12.7332 0.864502 12.6174 0.75 12.4805 0.75H11.0635C10.9265 0.75 10.8108 0.864502 10.8108 1V2.84497C10.8108 3.34546 10.4358 3.84753 9.95288 3.99854L7.82837 4.86475C7.66504 4.94995 7.47437 4.995 7.27515 4.995C6.93774 4.995 6.61841 4.87048 6.39917 4.65344L4.96094 3.23096C4.86646 3.1377 4.69824 3.1377 4.60352 3.23096L3.60181 4.22205C3.50488 4.31775 3.50488 4.47974 3.60181 4.57544L5.03979 5.99805C5.39795 6.35254 5.48975 6.96851 5.25342 7.41199L4.37769 9.51331C4.22534 9.99072 3.71753 10.3617 3.21143 10.3617H1.01099C0.874023 10.3617 0.758301 10.4762 0.758301 10.6117V12.0133C0.758301 12.1488 0.874023 12.2633 1.01099 12.2633H3.21143C3.71655 12.2633 4.22461 12.6327 4.37964 13.1083L5.34131 15.3505C5.58496 15.7922 5.49805 16.408 5.13818 16.7638L3.83862 18.0496C3.79126 18.0959 3.76514 18.1591 3.76514 18.2262C3.76514 18.2935 3.79126 18.3562 3.83862 18.403L4.84033 19.3943C4.93481 19.4875 5.10352 19.4875 5.19775 19.3943L6.53735 18.069C6.88208 17.728 7.52856 17.6262 7.96704 17.8462L9.94849 18.6295C10.4338 18.777 10.8108 19.278 10.8108 19.7803V21.6252C10.8108 21.7607 10.9265 21.8752 11.0635 21.8752H12.4805C12.6174 21.8752 12.7332 21.7607 12.7332 21.6252V19.7803C12.7332 19.2795 13.1086 18.7775 13.5913 18.6267L15.7153 17.7605C15.8787 17.6753 16.0693 17.6302 16.2686 17.6302C16.606 17.6302 16.9255 17.7545 17.1448 17.9716L18.3459 19.1598C18.4402 19.2531 18.6091 19.2531 18.7034 19.1598L19.7056 18.1685C19.7524 18.1219 19.7786 18.059 19.7786 17.9917C19.7786 17.9246 19.7527 17.8617 19.7056 17.8149L18.5042 16.6267C18.146 16.2725 18.0542 15.6562 18.2905 15.213L19.166 13.1121C19.3184 12.6343 19.8262 12.2633 20.3323 12.2633H21.8628Z" transform="translate(1.12646 0.1875)" fill="white" stroke="white" stroke-width="0.3"/>
<path fill-rule="evenodd" clip-rule="evenodd" d="M0 3.02649C0 1.35779 1.37231 0 3.05981 0C4.74683 0 6.11963 1.35779 6.11963 3.02649C6.11963 4.69556 4.74683 6.05298 3.05981 6.05298C1.37256 6.05298 0 4.69556 0 3.02649ZM0.758301 3.02649C0.758301 4.28174 1.79077 5.30298 3.05981 5.30298C4.32886 5.30298 5.36133 4.28174 5.36133 3.02649C5.36133 1.77124 4.32886 0.75 3.05981 0.75C1.79077 0.75 0.758301 1.77124 0.758301 3.02649Z" transform="translate(9.83862 8.47351)" fill="#4CD566"/>
<path d="M0.379121 0C0.169593 0 0 0.16775 0 0.375C0 0.58225 0.169593 0.75 0.379121 0.75C3.12648 0.75 5.36127 2.96075 5.36127 5.678C5.36127 5.88525 5.53112 6.053 5.7404 6.053C5.94967 6.053 6.11952 5.88525 6.11952 5.678C6.11952 2.54725 3.54453 0 0.379121 0Z" transform="translate(12.5193 5.82202)" fill="#4CD566"/>
<path d="M5.7404 5.303C2.99329 5.303 0.758242 3.09225 0.758242 0.375C0.758242 0.16775 0.588648 0 0.379121 0C0.169593 0 0 0.16775 0 0.375C0 3.50575 2.57499 6.053 5.7404 6.053C5.94992 6.053 6.11952 5.885 6.11952 5.678C6.11952 5.471 5.94967 5.303 5.7404 5.303Z" transform="translate(7.15796 11.125)" fill="#4CD566"/>
</svg>
