<svg width="23" height="22" viewBox="0 0 23 22" fill="none" xmlns="http://www.w3.org/2000/svg">
<path fill-rule="evenodd" clip-rule="evenodd" d="M22.3721 10.2361L19.3154 6.90555L13.5654 0.977783L13.5352 0.94722L13.5049 0.916672C12.9299 0.336105 12.1431 0 11.3259 0C10.5391 0 9.78247 0.305557 9.20752 0.85556L9.1167 0.94722L9.08643 0.977783L0.158936 10.2361C-0.0529785 10.45 -0.0529785 10.8167 0.158936 11.0305C0.370605 11.2444 0.733887 11.2444 0.945801 11.0305L2.2168 9.71666V17.4167C2.2168 19.6778 3.97192 21.5111 6.15088 21.5111H8.60229H13.8682H16.3193C18.4983 21.5111 20.2537 19.6778 20.2537 17.4167V9.65555L21.5247 11.0305C21.6458 11.1528 21.7971 11.2139 21.9182 11.2139C22.0391 11.2139 22.1904 11.1528 22.3115 11.0611C22.584 10.8167 22.584 10.4806 22.3721 10.2361ZM9.17725 20.3806V14.6667H13.3232V20.4111H9.17725V20.3806ZM16.3799 20.3806C17.9233 20.3806 19.1943 19.0667 19.1943 17.4167V8.43333L18.4983 7.7L12.718 1.71111C12.3247 1.34444 11.8403 1.13055 11.3259 1.13055C10.8115 1.13055 10.3271 1.31389 9.96411 1.68056L9.87329 1.77222L3.3667 8.55556V17.4167C3.3667 19.0361 4.60742 20.3806 6.18115 20.3806H8.08765V14.0861C8.08765 13.7805 8.32983 13.5361 8.63257 13.5361H13.9285C14.2312 13.5361 14.4734 13.7805 14.4734 14.0861V20.3806H16.3799Z" transform="translate(0.234619 0.244446)" fill="white"/>
<path fill-rule="evenodd" clip-rule="evenodd" d="M0 2.84166C0 1.28334 1.271 0 2.81445 0C4.35791 0 5.62891 1.25278 5.62891 2.84166C5.62891 4.39999 4.35791 5.68333 2.81445 5.68333C1.271 5.68333 0 4.39999 0 2.84166ZM1.11963 2.81111C1.11963 3.75835 1.87622 4.52223 2.81445 4.52223C3.75244 4.52223 4.50903 3.75835 4.50903 2.81111C4.50903 1.86389 3.75244 1.10001 2.81445 1.10001C1.87622 1.10001 1.11963 1.86389 1.11963 2.81111Z" transform="translate(8.68555 5.10278)" fill="#4CD566"/>
</svg>
