<?xml version="1.0" encoding="UTF-8"?>
<svg width="21px" height="24px" viewBox="0 0 21 24" version="1.1" xmlns="http://www.w3.org/2000/svg" xmlns:xlink="http://www.w3.org/1999/xlink">
    <!-- Generator: Sketch 50.2 (55047) - http://www.bohemiancoding.com/sketch -->
    <title>Group 2</title>
    <desc>Created with Sketch.</desc>
    <defs></defs>
    <g id="Symbols" stroke="none" stroke-width="1" fill="none" fill-rule="evenodd">
        <g id="leasing-select" transform="translate(0.000000, -3.000000)">
            <g id="Group-2" transform="translate(0.000000, 3.000000)">
                <path d="M20.24308,8.79296 C20.37992,8.71464 20.46418,8.56878 20.46418,8.41126 L20.46418,6.105 C20.46418,6.09906 20.4622,6.09356 20.46198,6.08784 C20.46088,6.06122 20.45736,6.03482 20.45142,6.00842 C20.44944,5.9994 20.44812,5.99038 20.44548,5.98158 C20.43602,5.94902 20.4237,5.9169 20.4061,5.88632 C20.40588,5.8861 20.40566,5.88566 20.40544,5.88544 C20.40434,5.88368 20.40302,5.88236 20.40192,5.8806 C20.38476,5.85156 20.3643,5.82604 20.34208,5.8025 C20.33548,5.79546 20.32822,5.78952 20.32096,5.78292 C20.30116,5.76466 20.28004,5.7486 20.2576,5.73452 C20.25254,5.73122 20.24858,5.7266 20.2433,5.72352 L18.23294,4.57028 C18.09742,4.4924 17.93066,4.4924 17.79514,4.57028 L16.00346,5.5979 L12.79058,3.75496 L12.79058,1.70346 C12.79058,1.69774 12.7886,1.69224 12.78838,1.68652 C12.78728,1.65968 12.78376,1.63306 12.77782,1.60622 C12.77584,1.59742 12.77452,1.5884 12.77188,1.57982 C12.76242,1.54726 12.7501,1.51514 12.73228,1.48456 C12.73206,1.48434 12.73184,1.48412 12.73162,1.48368 C12.73052,1.4817 12.72876,1.48016 12.72766,1.47818 C12.7105,1.44936 12.69026,1.42384 12.66804,1.40052 C12.66144,1.3937 12.6544,1.38776 12.64736,1.38138 C12.62712,1.36268 12.60578,1.3464 12.5829,1.3321 C12.57806,1.32902 12.57454,1.32462 12.56948,1.32176 L10.5589,0.16852 C10.42338,0.09064 10.25662,0.09064 10.1211,0.16852 L8.11052,1.32176 C8.10282,1.32616 8.09688,1.3321 8.08962,1.33672 C8.07642,1.3453 8.06322,1.35432 8.0509,1.36444 C8.03968,1.37368 8.02934,1.3838 8.01922,1.39392 C8.00932,1.40382 7.99986,1.4135 7.99084,1.4245 C7.9805,1.43704 7.97148,1.45046 7.96268,1.46388 C7.95806,1.47114 7.95212,1.47708 7.94794,1.48456 C7.94574,1.48852 7.94464,1.4927 7.94244,1.49666 C7.93496,1.51074 7.92902,1.52526 7.92308,1.54022 C7.91802,1.55276 7.91274,1.56508 7.90878,1.57784 C7.90482,1.59148 7.90218,1.60534 7.89954,1.6192 C7.89668,1.63328 7.8936,1.64736 7.89228,1.66166 C7.89096,1.67552 7.8914,1.6896 7.89118,1.70368 C7.89118,1.71776 7.89074,1.73162 7.89228,1.7457 C7.8936,1.76 7.89668,1.77386 7.89954,1.78816 C7.90218,1.80202 7.90482,1.81588 7.90878,1.82952 C7.91252,1.84228 7.91802,1.8546 7.92308,1.86714 C7.92902,1.88188 7.93496,1.89662 7.94244,1.9107 C7.94464,1.91466 7.94552,1.91884 7.94794,1.9228 C7.95234,1.93028 7.95806,1.93644 7.96268,1.94348 C7.97148,1.9569 7.9805,1.9701 7.99084,1.98264 C7.99986,1.99364 8.00976,2.00376 8.01966,2.01366 C8.02956,2.02356 8.03946,2.03324 8.05046,2.04248 C8.06322,2.05304 8.07686,2.06228 8.09072,2.0713 C8.09754,2.0757 8.10326,2.08142 8.11052,2.0856 L9.9,3.11124 L9.9,4.4033 L8.54832,3.62802 C8.54436,3.62582 8.53996,3.62472 8.53578,3.62252 C8.52192,3.61526 8.50784,3.60932 8.49332,3.6036 C8.48056,3.59832 8.4678,3.59304 8.45482,3.58908 C8.4414,3.58512 8.42776,3.5827 8.4139,3.58006 C8.3996,3.5772 8.38552,3.57412 8.37122,3.5728 C8.35736,3.57148 8.34328,3.57192 8.3292,3.57192 C8.31512,3.57192 8.30126,3.57148 8.28718,3.5728 C8.27288,3.57412 8.25858,3.5772 8.2445,3.58006 C8.23086,3.5827 8.21722,3.58512 8.2038,3.58908 C8.1906,3.59304 8.17784,3.59854 8.16486,3.60382 C8.15056,3.60954 8.13648,3.61526 8.12306,3.62252 C8.11888,3.62472 8.11448,3.62582 8.1103,3.62824 L4.67632,5.5979 L2.88486,4.57028 C2.74934,4.4924 2.58258,4.4924 2.44706,4.57028 L0.4367,5.72352 C0.43142,5.7266 0.42768,5.73122 0.4224,5.7343 C0.39996,5.74838 0.37906,5.76444 0.35926,5.7827 C0.352,5.7893 0.34452,5.79546 0.33792,5.8025 C0.3157,5.82582 0.29524,5.85156 0.27808,5.88038 C0.27698,5.88214 0.27544,5.88346 0.27456,5.88522 C0.27434,5.88544 0.27412,5.88588 0.2739,5.8861 C0.2563,5.9169 0.24398,5.94902 0.2343,5.98158 C0.23166,5.99016 0.23034,5.99896 0.22836,6.00798 C0.2222,6.0346 0.21868,6.06144 0.21758,6.08828 C0.21736,6.094 0.21538,6.09928 0.21538,6.10522 L0.21538,8.41148 C0.21538,8.569 0.29964,8.71464 0.43648,8.79318 L2.22574,9.8197 L2.22574,13.50074 L0.43648,14.52726 C0.4312,14.53034 0.42724,14.53496 0.42218,14.53826 C0.39974,14.55234 0.37884,14.5684 0.35926,14.58644 C0.352,14.59304 0.34452,14.5992 0.33792,14.60624 C0.3157,14.62956 0.29524,14.6553 0.27808,14.68412 C0.27698,14.68588 0.27544,14.6872 0.27456,14.68896 C0.27434,14.68918 0.27412,14.68962 0.2739,14.68984 C0.2563,14.72064 0.24398,14.75276 0.2343,14.78532 C0.23166,14.7939 0.23034,14.8027 0.22836,14.81172 C0.2222,14.83834 0.21868,14.86518 0.21758,14.89202 C0.21736,14.89774 0.21538,14.90302 0.21538,14.90896 L0.21538,17.215 C0.21538,17.37252 0.29964,17.51816 0.43648,17.5967 L2.44684,18.74994 C2.4519,18.7528 2.45762,18.7539 2.4629,18.75654 C2.48622,18.76886 2.51064,18.77876 2.53616,18.78668 C2.54518,18.78954 2.55376,18.79284 2.563,18.79504 C2.59622,18.80296 2.63032,18.80846 2.66596,18.80846 C2.7016,18.80846 2.7357,18.80318 2.76892,18.79504 C2.77794,18.79284 2.78652,18.78954 2.79554,18.78668 C2.82106,18.77876 2.84548,18.76886 2.86902,18.75654 C2.8743,18.7539 2.88002,18.7528 2.88508,18.74994 L4.67654,17.72232 L7.88942,19.56526 L7.88942,21.61676 C7.88942,21.77428 7.97368,21.91992 8.11052,21.99846 L10.1211,23.1517 C10.12616,23.15456 10.13188,23.15566 10.13716,23.1583 C10.16048,23.17062 10.1849,23.18052 10.21064,23.18844 C10.21966,23.1913 10.22824,23.1946 10.23726,23.1968 C10.27048,23.20472 10.30458,23.21022 10.34022,23.21022 C10.37586,23.21022 10.40996,23.20494 10.44318,23.1968 C10.4522,23.1946 10.46078,23.1913 10.4698,23.18844 C10.49532,23.18052 10.51974,23.17062 10.54328,23.1583 C10.54856,23.15566 10.55428,23.15456 10.55934,23.1517 L12.56992,21.99846 C12.78068,21.87746 12.85372,21.60862 12.73272,21.39786 C12.61194,21.1871 12.3431,21.11472 12.13212,21.23506 L10.78,22.01034 L10.78,20.7185 L16.00324,17.72232 L17.7947,18.74994 C17.79976,18.7528 17.80548,18.7539 17.81076,18.75654 C17.83408,18.76886 17.8585,18.77876 17.88424,18.78668 C17.89326,18.78954 17.90184,18.79284 17.91086,18.79504 C17.94408,18.80296 17.97818,18.80846 18.01382,18.80846 C18.04946,18.80846 18.08356,18.80318 18.11678,18.79504 C18.1258,18.79284 18.13438,18.78954 18.1434,18.78668 C18.16892,18.77876 18.19334,18.76886 18.21688,18.75654 C18.22216,18.7539 18.22788,18.7528 18.23294,18.74994 L20.2433,17.5967 C20.38014,17.51838 20.4644,17.37252 20.4644,17.215 L20.4644,14.90852 C20.4644,14.90258 20.46242,14.89708 20.4622,14.89136 C20.4611,14.86474 20.45758,14.83834 20.45164,14.81194 C20.44966,14.80292 20.44834,14.7939 20.4457,14.7851 C20.43624,14.75254 20.42392,14.72042 20.40632,14.68984 C20.4061,14.68962 20.40588,14.68918 20.40566,14.68896 C20.40456,14.6872 20.40324,14.68588 20.40214,14.68412 C20.38498,14.65508 20.36452,14.62956 20.3423,14.60602 C20.3357,14.59898 20.32822,14.59304 20.32118,14.58644 C20.30138,14.56818 20.28048,14.55212 20.25804,14.53826 C20.25276,14.53496 20.24902,14.53034 20.24352,14.52726 L18.45426,13.50074 L18.45426,9.81948 L20.24308,8.79296 Z M18.45382,8.80506 L18.45382,7.513 L19.58418,6.86466 L19.58418,8.1565 L18.45382,8.80506 Z M16.22214,16.8333 C16.21818,16.83088 16.21378,16.82978 16.2096,16.82758 C16.19618,16.82054 16.18232,16.81482 16.16824,16.8091 C16.15482,16.8036 16.14184,16.7981 16.1282,16.79392 C16.11566,16.79018 16.1029,16.78798 16.09014,16.78534 C16.07474,16.78226 16.05978,16.77896 16.04438,16.77742 C16.03184,16.77632 16.01908,16.77654 16.00632,16.77654 C15.99092,16.77654 15.97552,16.7761 15.96034,16.77764 C15.94714,16.77896 15.93416,16.78182 15.92096,16.78446 C15.90622,16.78732 15.89148,16.78996 15.87718,16.79414 C15.86464,16.79788 15.85232,16.80316 15.84,16.80822 C15.82526,16.81416 15.81096,16.81988 15.79688,16.82736 C15.7927,16.82956 15.7883,16.83066 15.78434,16.83286 L12.35058,18.80252 L10.5589,17.7749 C10.42338,17.69702 10.25662,17.69702 10.1211,17.7749 L8.32942,18.80252 L4.89566,16.83286 C4.89192,16.83066 4.88774,16.82956 4.88378,16.82758 C4.86948,16.81988 4.85474,16.81394 4.83978,16.808 C4.82746,16.80294 4.81514,16.79766 4.8026,16.79392 C4.78874,16.78974 4.77488,16.78732 4.76058,16.78468 C4.74672,16.78204 4.73286,16.77896 4.71878,16.77764 C4.7047,16.77632 4.69084,16.77676 4.67654,16.77676 C4.66246,16.77676 4.64838,16.77632 4.63452,16.77764 C4.62044,16.77896 4.60658,16.78204 4.5925,16.7849 C4.57864,16.78754 4.56456,16.79018 4.55092,16.79414 C4.53794,16.7981 4.5254,16.80338 4.51264,16.80844 C4.49812,16.81416 4.48382,16.8201 4.47018,16.82736 C4.466,16.82956 4.4616,16.83066 4.45764,16.83308 L3.10596,17.60836 L3.10596,16.3163 L4.89544,15.29 C4.90226,15.28604 4.90776,15.28076 4.91436,15.27636 C4.92866,15.26712 4.94274,15.25766 4.95594,15.24666 C4.9665,15.23786 4.97596,15.22862 4.98564,15.21916 C4.99598,15.20882 5.0061,15.19848 5.01556,15.18704 C5.02568,15.17472 5.03448,15.16174 5.04306,15.14832 C5.0479,15.14106 5.05362,15.1349 5.05802,15.12742 C5.06022,15.12346 5.06132,15.11928 5.06352,15.11532 C5.071,15.10124 5.07694,15.08672 5.08288,15.07176 C5.08794,15.05922 5.09322,15.0469 5.09718,15.03414 C5.10114,15.0205 5.10378,15.00686 5.10642,14.99278 C5.10928,14.9787 5.11236,14.96462 5.11368,14.95032 C5.115,14.93646 5.11456,14.92238 5.11456,14.9083 C5.11456,14.89422 5.115,14.88036 5.11368,14.86628 C5.11236,14.85198 5.10928,14.8379 5.10642,14.82382 C5.10378,14.80996 5.10136,14.79632 5.09718,14.78268 C5.09322,14.7697 5.08794,14.75738 5.08288,14.74462 C5.07694,14.72988 5.071,14.71558 5.06352,14.7015 C5.06132,14.69754 5.06022,14.69314 5.05802,14.68918 C5.05362,14.68148 5.04768,14.67532 5.04284,14.66806 C5.03426,14.65486 5.02546,14.6421 5.01556,14.62978 C5.0061,14.61834 4.99598,14.608 4.98564,14.59766 C4.97596,14.58798 4.96628,14.57852 4.9555,14.56972 C4.94274,14.55916 4.9291,14.54992 4.91546,14.54112 C4.90842,14.5365 4.90248,14.53078 4.89522,14.5266 L3.10574,13.50008 L3.10574,9.81948 L4.89522,8.79296 C5.10598,8.67196 5.17902,8.40312 5.05802,8.19236 C4.93724,7.9816 4.6684,7.90878 4.45742,8.02956 L3.10574,8.80484 L3.10574,7.513 L8.32898,4.51682 L10.12044,5.54444 C10.1255,5.5473 10.13122,5.5484 10.1365,5.55104 C10.15982,5.56336 10.18424,5.57326 10.20998,5.58118 C10.219,5.58404 10.22758,5.58734 10.2366,5.58954 C10.26982,5.59746 10.30392,5.60296 10.33956,5.60296 C10.3752,5.60296 10.4093,5.59768 10.44252,5.58954 C10.45154,5.58734 10.46012,5.58404 10.46914,5.58118 C10.49466,5.57326 10.51908,5.56336 10.54262,5.55104 C10.5479,5.5484 10.55362,5.5473 10.55868,5.54444 L12.35014,4.51682 L15.7839,6.4867 L17.57338,7.513 L17.57338,8.80484 L16.2217,8.02956 C16.01116,7.90856 15.7421,7.9816 15.6211,8.19236 C15.5001,8.40312 15.57314,8.67196 15.7839,8.79296 L17.57338,9.81948 L17.57338,13.5003 L15.7839,14.52682 C15.7762,14.53122 15.76982,14.53738 15.76256,14.54222 C15.74936,14.5508 15.7366,14.5596 15.72428,14.5695 C15.71306,14.57874 15.70294,14.58864 15.69282,14.59876 C15.68292,14.60866 15.67302,14.61878 15.664,14.62978 C15.65388,14.6421 15.64486,14.6553 15.63628,14.6685 C15.63144,14.67576 15.62572,14.68192 15.62132,14.6894 C15.61912,14.69336 15.61802,14.69754 15.61582,14.70172 C15.60834,14.7158 15.6024,14.7301 15.59646,14.74484 C15.5914,14.75738 15.58612,14.76992 15.58216,14.7829 C15.5782,14.79632 15.57578,14.81018 15.57292,14.82404 C15.57006,14.83834 15.56698,14.8522 15.56566,14.8665 C15.56434,14.88036 15.56478,14.89444 15.56478,14.90852 C15.56478,14.9226 15.56434,14.93646 15.56566,14.95054 C15.56698,14.96484 15.57006,14.9787 15.57292,14.993 C15.57556,15.00686 15.57798,15.02072 15.58216,15.03436 C15.5859,15.04712 15.5914,15.05944 15.59646,15.07198 C15.6024,15.08672 15.60834,15.10146 15.61582,15.11554 C15.61802,15.1195 15.6189,15.12368 15.62132,15.12764 C15.62572,15.13512 15.63144,15.14128 15.63606,15.14832 C15.64486,15.16174 15.65388,15.17494 15.66422,15.18748 C15.67324,15.19848 15.68314,15.20838 15.69304,15.2185 C15.70316,15.22862 15.71306,15.23852 15.72428,15.24754 C15.73682,15.25788 15.7498,15.26668 15.76322,15.27548 C15.77048,15.2801 15.77642,15.28604 15.78412,15.29044 L17.5736,16.31674 L17.5736,17.6088 L16.22214,16.8333 Z M10.34,19.9562 L9.21382,19.31028 L10.34,18.66436 L11.46618,19.31028 L10.34,19.9562 Z M2.66618,14.2626 L3.79236,14.90852 L2.66618,15.55444 L1.54,14.90852 L2.66618,14.2626 Z M10.78,3.11124 L11.91058,2.4629 L11.91058,3.75474 L10.78,4.40308 L10.78,3.11124 Z M18.01382,15.55444 L16.88764,14.90852 L18.01382,14.2626 L19.14,14.90852 L18.01382,15.55444 Z M18.01382,5.45886 L19.14,6.105 L18.01382,6.75092 L16.88764,6.105 L18.01382,5.45886 Z M10.34,1.05732 L11.46618,1.70324 L10.34,2.34916 L9.21382,1.70324 L10.34,1.05732 Z M2.66618,5.45886 L3.79236,6.10478 L2.66618,6.7507 L1.54,6.105 L2.66618,5.45886 Z M1.09582,8.1565 L1.09582,6.86466 L2.22618,7.513 L2.22618,8.80484 L1.09582,8.1565 Z M1.09582,15.66818 L2.22618,16.31652 L2.22618,17.60836 L1.09582,16.96002 L1.09582,15.66818 Z M8.76942,20.06994 L9.9,20.7185 L9.9,22.01056 L8.76942,21.362 L8.76942,20.06994 Z M18.45382,17.60858 L18.45382,16.31674 L19.58418,15.6684 L19.58418,16.96024 L18.45382,17.60858 Z" id="Shape" fill="#4CD566" fill-rule="nonzero"></path>
                <text id="L" font-family="ArialRoundedMTBold, Arial Rounded MT Bold" font-size="11.22" font-weight="normal" fill="#FFFFFF">
                    <tspan x="7.50153809" y="15.18">L</tspan>
                </text>
                <rect id="Rectangle-3" stroke="#FFFFFF" stroke-width="0.55" fill="#FFFFFF" x="6.655" y="8.635" width="2.75" height="1" rx="0.5"></rect>
                <rect id="Rectangle-3-Copy-2" stroke="#FFFFFF" stroke-width="0.55" fill="#FFFFFF" transform="translate(12.540000, 15.290000) rotate(90.000000) translate(-12.540000, -15.290000) " x="11.165" y="15.125" width="2.75" height="1" rx="0.5"></rect>
                <rect id="Rectangle-3-Copy" stroke="#FFFFFF" stroke-width="0.55" fill="#FFFFFF" x="6.655" y="10.395" width="2.75" height="1" rx="0.5"></rect>
                <rect id="Rectangle-3-Copy-3" stroke="#FFFFFF" stroke-width="0.55" fill="#FFFFFF" transform="translate(10.780000, 15.290000) rotate(90.000000) translate(-10.780000, -15.290000) " x="9.405" y="15.125" width="2.75" height="1" rx="0.5"></rect>
            </g>
        </g>
    </g>
</svg>