<svg width="20" height="27" viewBox="0 0 20 27" fill="none" xmlns="http://www.w3.org/2000/svg">
<path fill-rule="evenodd" clip-rule="evenodd" d="M3.78809 0H9.84863C11.9404 0 13.6362 1.67896 13.6362 3.75C13.6362 5.82104 11.9404 7.5 9.84863 7.5H3.78809C1.6958 7.5 0 5.82104 0 3.75C0 1.67896 1.6958 0 3.78809 0ZM3.78809 6H9.84863C11.1035 6 12.1211 4.99268 12.1211 3.75C12.1211 2.50732 11.1035 1.5 9.84863 1.5H3.78809C2.53271 1.5 1.51514 2.50732 1.51514 3.75C1.51514 4.99268 2.53271 6 3.78809 6Z" transform="translate(3.31543 13.35)" fill="#4CD566"/>
<path d="M0.757576 1.5C1.17597 1.5 1.51515 1.16421 1.51515 0.75C1.51515 0.335786 1.17597 0 0.757576 0C0.339178 0 0 0.335786 0 0.75C0 1.16421 0.339178 1.5 0.757576 1.5Z" transform="translate(5.64844 16.35)" fill="#4CD566"/>
<path d="M0.757576 1.5C1.17597 1.5 1.51515 1.16421 1.51515 0.75C1.51515 0.335786 1.17597 0 0.757576 0C0.339178 0 0 0.335786 0 0.75C0 1.16421 0.339178 1.5 0.757576 1.5Z" transform="translate(8.1333 16.35)" fill="#4CD566"/>
<path d="M0.757576 1.5C1.17597 1.5 1.51515 1.16421 1.51515 0.75C1.51515 0.335786 1.17597 0 0.757576 0C0.339178 0 0 0.335786 0 0.75C0 1.16421 0.339178 1.5 0.757576 1.5Z" transform="translate(10.6152 16.35)" fill="#4CD566"/>
<path d="M0.757576 1.5C1.17597 1.5 1.51515 1.16421 1.51515 0.75C1.51515 0.335786 1.17597 0 0.757576 0C0.339178 0 0 0.335786 0 0.75C0 1.16421 0.339178 1.5 0.757576 1.5Z" transform="translate(13.1001 16.35)" fill="#4CD566"/>
<path fill-rule="evenodd" clip-rule="evenodd" d="M16.9699 10.2271V6.75C16.965 3.02417 13.9152 0.00500488 10.1515 0H9.54559C5.78191 0.00500488 2.7326 3.02417 2.72723 6.75V10.2271C-0.98957 14.0787 -0.89582 20.1707 2.93816 23.9086C6.77166 27.6465 12.926 27.6465 16.7595 23.9086C20.5929 20.1707 20.6867 14.0787 16.9699 10.2271ZM4.24236 6.75C4.24578 3.85193 6.61785 1.5033 9.54559 1.5H10.1515C13.0788 1.5033 15.4513 3.85193 15.4543 6.75V8.93396C15.4064 8.90002 15.3566 8.86951 15.3063 8.83899L15.2179 8.78406L15.1823 8.76086C15.1105 8.71411 15.0261 8.65918 14.9484 8.61304C14.8576 8.55896 14.7331 8.48706 14.6242 8.427L14.4181 8.31897C14.2463 8.229 14.0724 8.14502 13.8971 8.06702L13.6364 7.94995L13.3332 7.82703L13.0304 7.71594C12.9089 7.67395 12.7848 7.63501 12.6603 7.599C12.5788 7.57532 12.4733 7.54761 12.3727 7.52124L12.2243 7.48206L11.9694 7.42798C11.7907 7.38904 11.612 7.35596 11.4304 7.32605L11.3058 7.30505C11.1061 7.27502 10.9059 7.25403 10.6999 7.23596H10.5212C10.4113 7.23596 10.3014 7.2301 10.1911 7.22412L10.1857 7.22388C10.0754 7.2179 9.96404 7.21204 9.85125 7.21204C9.6242 7.21204 9.40301 7.21204 9.18182 7.23596H9.00311C8.79998 7.25403 8.59686 7.27502 8.39715 7.30505L8.27264 7.32605C8.091 7.35596 7.91229 7.38904 7.73309 7.42798L7.49383 7.48206C7.34637 7.51794 7.20086 7.55701 7.0573 7.599C6.93328 7.63501 6.81219 7.67395 6.68768 7.71594L6.38494 7.82703L6.08172 7.94995L5.82439 8.06396C5.64861 8.14197 5.47479 8.22595 5.30291 8.31604L5.09686 8.42395L5.08172 8.43237C4.97772 8.48962 4.87371 8.547 4.77264 8.60999C4.66668 8.67603 4.591 8.724 4.50311 8.78101C4.46795 8.80371 4.43523 8.82361 4.40398 8.84265C4.35662 8.87146 4.31219 8.89856 4.26678 8.93103L4.24236 6.75ZM1.5617 17.796C1.99969 22.0016 5.57781 25.1987 9.84881 25.2C14.1144 25.1865 17.6813 21.9858 18.113 17.7841C18.5441 13.5824 15.7004 9.73669 11.5246 8.87402H11.4972L11.1457 8.81104H11.0817L10.7575 8.76904H10.6638L10.3605 8.745H10.2575H9.8366H9.41522H9.31219L9.00945 8.76904H8.91522L8.591 8.81104H8.52752L8.17596 8.87402H8.14861C3.96795 9.73779 1.12371 13.5905 1.5617 17.796Z" transform="translate(0.151367 0.150024)" fill="white"/>
</svg>
