<svg width="17" height="17" viewBox="0 0 17 17" fill="none" xmlns="http://www.w3.org/2000/svg">
<path fill-rule="evenodd" clip-rule="evenodd" d="M6.2334 7.26364H1.03027C0.461182 7.26364 0 6.80235 0 6.23334V1.0303C0 0.461288 0.461182 0 1.03027 0H6.2334C6.80225 0 7.26367 0.461288 7.26367 1.0303V6.23334C7.26367 6.80235 6.80225 7.26364 6.2334 7.26364ZM6.2334 1.0303H1.03027V6.23334H6.2334V1.0303Z" transform="translate(0.0773926 0.0772705)" fill="#4CD566"/>
<path fill-rule="evenodd" clip-rule="evenodd" d="M6.2334 7.26364H1.03027C0.461182 7.26364 0 6.80235 0 6.23334V1.0303C0 0.461288 0.461182 0 1.03027 0H6.2334C6.80225 0 7.26367 0.461288 7.26367 1.0303V6.23334C7.26367 6.80235 6.80225 7.26364 6.2334 7.26364ZM6.2334 1.0303H1.03027V6.23334H6.2334V1.0303Z" transform="translate(9.65918 0.0772705)" fill="white"/>
<path fill-rule="evenodd" clip-rule="evenodd" d="M1.03027 7.26364C0.461182 7.26364 0 6.80235 0 6.23334V1.0303C0 0.461288 0.461182 0 1.03027 0H6.2334C6.80225 0 7.26367 0.461288 7.26367 1.0303V6.23334C7.26367 6.80235 6.80225 7.26364 6.2334 7.26364H1.03027ZM6.2334 1.0303H1.03027V6.23334H6.2334V1.0303Z" transform="translate(0.0773926 9.65909)" fill="white"/>
<path fill-rule="evenodd" clip-rule="evenodd" d="M1.03027 7.26364C0.461182 7.26364 0 6.80235 0 6.23334V1.0303C0 0.461288 0.461182 0 1.03027 0H6.2334C6.80225 0 7.26367 0.461288 7.26367 1.0303V6.23334C7.26367 6.80235 6.80225 7.26364 6.2334 7.26364H1.03027ZM6.2334 1.0303H1.03027V6.23334H6.2334V1.0303Z" transform="translate(9.65918 9.65909)" fill="#4CD566"/>
</svg>
