<svg width="17" height="26" viewBox="0 0 17 26" fill="none" xmlns="http://www.w3.org/2000/svg">
<path fill-rule="evenodd" clip-rule="evenodd" d="M2.71973 0H14.0527C15.5537 0 16.7734 1.19604 16.7734 2.66675V23.2932C16.7734 24.7637 15.5537 25.96 14.0527 25.96H2.71973C1.2207 25.96 0 24.7637 0 23.2932V2.66675C0 1.19629 1.2207 0 2.71973 0ZM14.0527 0.666748H2.71973C1.59473 0.666748 0.679688 1.56372 0.679688 2.66675V4.69653H16.0928V2.66675C16.0928 1.56372 15.1777 0.666748 14.0527 0.666748ZM16.0928 5.36255V21.5151H0.679688V5.36255H16.0928ZM2.71973 25.2932H14.0527C15.1777 25.2932 16.0928 24.3962 16.0928 23.2932V22.1819H0.679688V23.2932C0.679688 24.3962 1.59473 25.2932 2.71973 25.2932Z" transform="translate(0.113281 0.0200195)" fill="white"/>
<path d="M0 0H3.17322V0.666667H0V0Z" transform="translate(6.91309 2.03174)" fill="white"/>
<path fill-rule="evenodd" clip-rule="evenodd" d="M0 4.90381C0 7.60791 2.2002 9.80762 4.9043 9.80762C7.60742 9.80762 9.80762 7.60791 9.80762 4.90381C9.80762 2.19995 7.60742 0 4.9043 0C2.2002 0 0 2.19995 0 4.90381ZM0.769531 4.90381C0.769531 2.62402 2.62402 0.769287 4.9043 0.769287C7.18359 0.769287 9.03906 2.62402 9.03906 4.90381C9.03906 7.18384 7.18359 9.03857 4.9043 9.03857C2.62402 9.03857 0.769531 7.18384 0.769531 4.90381Z" transform="translate(3 8)" fill="#4CD566"/>
<path d="M1.61227 5.67345C0.72322 5.67345 0 4.95155 0 4.06419C0 3.85179 0.172213 3.67957 0.384615 3.67957C0.597018 3.67957 0.769231 3.85179 0.769231 4.06419C0.769231 4.52731 1.14746 4.90422 1.61227 4.90422C2.07538 4.90422 2.4523 4.52731 2.4523 4.06419C2.4523 3.60107 2.07538 3.22435 1.61227 3.22435C0.72322 3.22435 0 2.50113 0 1.61208C0 0.72322 0.72322 0 1.61227 0C2.49962 0 3.22153 0.72322 3.22153 1.61208C3.22153 1.82448 3.04932 1.99669 2.83691 1.99669C2.62451 1.99669 2.4523 1.82448 2.4523 1.61208C2.4523 1.14727 2.07538 0.769231 1.61227 0.769231C1.14746 0.769231 0.769231 1.14727 0.769231 1.61208C0.769231 2.07689 1.14746 2.45512 1.61227 2.45512C2.49962 2.45512 3.22153 3.17702 3.22153 4.06419C3.22153 4.95155 2.49962 5.67345 1.61227 5.67345Z" transform="translate(6.38965 10.0613)" fill="#4CD566"/>
<path d="M0.384615 1.20324C0.172213 1.20324 0 1.03102 0 0.818622V0.384615C0 0.172213 0.172213 0 0.384615 0C0.597018 0 0.769231 0.172213 0.769231 0.384615V0.818622C0.769231 1.03102 0.597018 1.20324 0.384615 1.20324Z" transform="translate(7.61719 14.9656)" fill="#4CD566"/>
<path d="M0.384615 1.20023C0.172213 1.20023 0 1.02802 0 0.815618V0.384615C0 0.172213 0.172213 0 0.384615 0C0.597018 0 0.769231 0.172213 0.769231 0.384615V0.815618C0.769231 1.02802 0.597018 1.20023 0.384615 1.20023Z" transform="translate(7.61719 9.63037)" fill="#4CD566"/>
</svg>
