<svg xmlns="http://www.w3.org/2000/svg" width="21" height="20" viewBox="0 0 21 20">
    <g fill="none" fill-rule="nonzero">
        <ellipse cx="15.305" cy="12.5" fill="#FFF" rx="1" ry="1"/>
        <path fill="#FFF" d="M9.15.162a.58.58 0 0 0-.803 0L6.112 2.416H1.906A1.915 1.915 0 0 0 0 4.336v4.235a.57.57 0 0 0 .568.573.57.57 0 0 0 .568-.573V6.092c.242.11.504.165.77.165h15.088c.437 0 .792.358.792.799v2.667h-2.952a2.813 2.813 0 0 0-2.045.895 2.824 2.824 0 0 0-.772 2.126 2.866 2.866 0 0 0 2.885 2.646h2.884v2.648a.814.814 0 0 1-.81.818h-5.64a.57.57 0 0 0-.568.572.57.57 0 0 0 .568.572h5.633a1.956 1.956 0 0 0 1.946-1.962V15.39h.795a1.297 1.297 0 0 0 1.29-1.3v-3.067a1.297 1.297 0 0 0-1.283-1.3h-.795V7.056a1.938 1.938 0 0 0-1.928-1.934h-.057v-.955a1.747 1.747 0 0 0-1.74-1.75h-3.809L9.151.161zm10.567 10.705c.085 0 .154.07.154.156v3.067c0 .086-.069.156-.154.156h-4.815a1.724 1.724 0 0 1-1.75-1.57c-.03-.467.132-.925.45-1.267a1.67 1.67 0 0 1 1.222-.535l4.893-.007zM3.437 5.122H1.905a.773.773 0 0 1-.77-.776c0-.429.344-.776.77-.776h3.07l-1.54 1.552zm11.76-1.561c.332 0 .602.271.602.606v.955H14.06l-1.54-1.552 2.676-.01zM5.042 5.12L8.75 1.378l3.709 3.745H5.042z"/>
        <path fill="#4CD566" d="M.583 16.884a2.53 2.53 0 0 1 2.522 2.531.584.584 0 1 0 1.166 0 3.7 3.7 0 0 0-3.688-3.7.584.584 0 0 0 0 1.169z"/>
        <path fill="#4CD566" d="M.568 13.998c2.792.002 5.055 2.273 5.058 5.074a.57.57 0 1 0 1.137 0c-.004-3.43-2.775-6.211-6.195-6.215a.57.57 0 0 0 0 1.141z"/>
        <path fill="#4CD566" d="M.562 11.843c4.177.003 7.563 3.4 7.568 7.593a.563.563 0 1 0 1.124 0C9.248 14.62 5.36 10.719.562 10.714a.563.563 0 0 0 0 1.129z"/>
    </g>
</svg>
