<?xml version="1.0" encoding="UTF-8"?>
<svg width="28px" height="30px" viewBox="0 0 28 30" version="1.1" xmlns="http://www.w3.org/2000/svg" xmlns:xlink="http://www.w3.org/1999/xlink">
    <!-- Generator: Sketch 50.2 (55047) - http://www.bohemiancoding.com/sketch -->
    <title>ic_copy</title>
    <desc>Created with Sketch.</desc>
    <defs></defs>
    <g id="Symbols" stroke="none" stroke-width="1" fill="none" fill-rule="evenodd">
        <g id="modal_eth_6" transform="translate(-67.000000, -400.000000)" fill="#FFFFFF" fill-rule="nonzero">
            <g id="Group-28">
                <g transform="translate(36.000000, 370.000000)">
                    <g id="ic_copy" transform="translate(31.000000, 30.000000)">
                        <path d="M21.5,6 L23,6 C25.4852813,6 27.5,8.01471863 27.5,10.5 L27.5,25.5 C27.5,27.9852813 25.4852813,30 23,30 L11,30 C8.51471863,30 6.5,27.9852813 6.5,25.5 L6.5,24 L5,24 C2.51471862,24 0.5,21.9852813 0.5,19.5 L0.5,4.5 C0.5,2.01471863 2.51471862,0 5,0 L17,0 C19.4852813,0 21.5,2.01471863 21.5,4.5 L21.5,6 Z M19.3999991,6 L19.3999991,5.09999943 C19.3999991,3.44314518 18.0568533,2.09999943 16.3999991,2.09999943 L5.59999943,2.09999943 C3.94314518,2.09999943 2.59999943,3.44314518 2.59999943,5.09999943 L2.59999943,18.8999991 C2.59999943,20.5568534 3.94314518,21.8999991 5.59999943,21.8999991 L6.5,21.8999991 L6.5,10.5 C6.5,8.01471863 8.51471863,6 11,6 L19.3999991,6 Z M11.5999994,8.09999943 C9.94314518,8.09999943 8.59999943,9.44314518 8.59999943,11.0999994 L8.59999943,24.8999991 C8.59999943,26.5568534 9.94314518,27.8999991 11.5999994,27.8999991 L22.3999991,27.8999991 C24.0568534,27.8999991 25.3999991,26.5568534 25.3999991,24.8999991 L25.3999991,11.0999994 C25.3999991,9.44314518 24.0568534,8.09999943 22.3999991,8.09999943 L11.5999994,8.09999943 Z" id="Shape"></path>
                    </g>
                </g>
            </g>
        </g>
    </g>
</svg>