<?xml version="1.0" encoding="UTF-8"?>
<svg width="41px" height="31px" viewBox="0 0 41 31" version="1.1" xmlns="http://www.w3.org/2000/svg" xmlns:xlink="http://www.w3.org/1999/xlink">
    <!-- Generator: Sketch 50.2 (55047) - http://www.bohemiancoding.com/sketch -->
    <title>ic_email</title>
    <desc>Created with Sketch.</desc>
    <defs></defs>
    <g id="Symbols" stroke="none" stroke-width="1" fill="none" fill-rule="evenodd">
        <g id="modal_eth_6" transform="translate(-294.000000, -400.000000)" fill="#FFFFFF" fill-rule="nonzero">
            <g id="Group-18">
                <g transform="translate(269.000000, 370.000000)">
                    <path d="M32.3685092,61 L58.2981575,61 C62.1675042,61 65.3333333,57.7983607 65.3333333,53.8852459 L65.3333333,37.1147541 C65.3333333,33.2016393 62.1675042,30 58.2981575,30 L32.3685092,30 C28.4991625,30 25.3333333,33.2016393 25.3333333,37.1147541 L25.3333333,53.8852459 C25.3333333,57.7983607 28.4991625,61 32.3685092,61 Z M58.2981575,32.0327869 C59.6046901,32.0327869 60.8107203,32.5409836 61.7152429,33.404918 L46.7403685,44.7885246 C46.7403685,44.7885246 46.6901173,44.8393443 46.6901173,44.8393443 C45.9363484,45.5 44.7805695,45.5 44.0268007,44.8393443 C44.0268007,44.8393443 43.9765494,44.7885246 43.9765494,44.7885246 L28.9514238,33.404918 C29.8559464,32.5409836 31.0619765,32.0327869 32.3685092,32.0327869 L58.2981575,32.0327869 Z M27.3433836,37.1147541 C27.3433836,36.4032787 27.4941374,35.6918033 27.7956449,35.0311475 L42.720268,46.4147541 C43.4740369,47.0754098 44.4288107,47.3803279 45.3333333,47.3803279 C46.2378559,47.3803279 47.1926298,47.0754098 47.9463987,46.4147541 L62.8710218,35.0311475 C63.1725293,35.6409836 63.3232831,36.352459 63.3232831,37.1147541 L63.3232831,53.8852459 C63.3232831,56.6803279 61.0619765,58.9672131 58.2981575,58.9672131 L32.3685092,58.9672131 C29.6046901,58.9672131 27.3433836,56.6803279 27.3433836,53.8852459 L27.3433836,37.1147541 Z" id="ic_email"></path>
                </g>
            </g>
        </g>
    </g>
</svg>