<?xml version="1.0" encoding="UTF-8"?>
<svg width="42px" height="34px" viewBox="0 0 42 34" version="1.1" xmlns="http://www.w3.org/2000/svg" xmlns:xlink="http://www.w3.org/1999/xlink">
    <!-- Generator: Sketch 50.2 (55047) - http://www.bohemiancoding.com/sketch -->
    <title>ic_link</title>
    <desc>Created with Sketch.</desc>
    <defs></defs>
    <g id="Symbols" stroke="none" stroke-width="1" fill="none" fill-rule="evenodd">
        <g id="modal_eth_6" transform="translate(-410.000000, -398.000000)" fill="#FFFFFF" fill-rule="nonzero">
            <g id="Group-17">
                <g transform="translate(386.000000, 370.000000)">
                    <path d="M57.5435364,28 C55.3820044,28 53.2183769,28.8374606 51.5747864,30.505597 L49.0904114,33.0270522 C48.5036088,33.622613 48.5036088,34.5882079 49.0904114,35.1837686 C49.6772139,35.7793294 50.6286088,35.7793294 51.2154114,35.1837687 L53.6841614,32.6623134 C55.8328359,30.4815534 59.2386224,30.4815534 61.3872864,32.6623134 C63.5359194,34.8429516 63.5359329,38.2838582 61.3872864,40.4645522 L52.2779114,49.7098881 C50.1292564,51.8906582 46.7234089,51.8906582 44.5747864,49.7098881 C42.9815349,48.0928582 42.5981324,45.7591388 43.3716614,43.7789179 C43.6108731,43.2666582 43.549869,42.6619332 43.2133401,42.2095003 C42.8768111,41.7570674 42.3204877,41.5318511 41.7695371,41.6250058 C41.2185865,41.7181606 40.764248,42.1142596 40.5904114,42.6529851 C39.3887094,45.7293254 40.0168729,49.3815597 42.4654114,51.8666045 C45.7525649,55.2029179 51.1001064,55.2029179 54.3872864,51.8666045 L63.4966614,42.6212687 C66.7838699,39.2850313 66.7838834,33.8417887 63.4966614,30.505597 C61.8530754,28.8374606 59.7050684,28 57.5435364,28 Z M41.5435364,35.1044776 C39.3819949,35.1044725 37.2183779,35.9419331 35.5747864,37.6100746 L26.4654114,46.8554104 C23.1782028,50.1916731 23.1781897,55.6349209 26.4654114,58.9710821 C29.7525834,62.3073955 35.1001059,62.3073955 38.3872864,58.9710821 L40.8716614,56.4496269 C41.4584639,55.8540661 41.4584639,54.8884713 40.8716613,54.2929105 C40.2848588,53.6973497 39.3334639,53.6973497 38.7466614,54.2929104 L36.2779114,56.8143657 C34.1292369,58.9951358 30.7234504,58.9951358 28.5747864,56.8143657 C26.4261534,54.6337478 26.4261404,51.1928463 28.5747864,49.0121269 L37.6841614,39.766791 C39.8328139,37.5860412 43.2386634,37.5860666 45.3872864,39.766791 C46.9805479,41.3838615 47.3639369,43.7175403 46.5904114,45.6977612 C46.3511997,46.2100209 46.4122037,46.8147459 46.7487327,47.2671788 C47.0852616,47.7196117 47.641585,47.944828 48.1925356,47.8516733 C48.7434863,47.7585185 49.1978248,47.3624195 49.3716614,46.823694 C50.5733669,43.747303 49.9451899,40.0951904 47.4966614,37.6100746 C45.8530849,35.9419433 43.7050779,35.1044827 41.5435364,35.1044776 Z" id="ic_link"></path>
                </g>
            </g>
        </g>
    </g>
</svg>