<?xml version="1.0" encoding="UTF-8"?>
<svg width="44px" height="34px" viewBox="0 0 44 34" version="1.1" xmlns="http://www.w3.org/2000/svg" xmlns:xlink="http://www.w3.org/1999/xlink">
    <!-- Generator: Sketch 50.2 (55047) - http://www.bohemiancoding.com/sketch -->
    <title>ic_print</title>
    <desc>Created with Sketch.</desc>
    <defs></defs>
    <g id="Symbols" stroke="none" stroke-width="1" fill="none" fill-rule="evenodd">
        <g id="modal_eth_6" transform="translate(-176.000000, -398.000000)" fill="#FFFFFF" fill-rule="nonzero">
            <g id="Group-19">
                <g transform="translate(152.000000, 370.000000)">
                    <path d="M59.5141367,37.6788617 L59.5141367,29.0141837 C59.5141367,28.4543543 59.0653644,28 58.5124128,28 L33.8199188,28 C33.2669672,28 32.8181949,28.4543543 32.8181949,29.0141837 L32.8181949,37.6788617 C28.2513356,38.1210458 24.6666667,42.0246387 24.6666667,46.7623976 C24.6666667,51.795284 28.7111269,55.8900506 33.6821817,55.8900506 L35.335527,55.8900506 L35.335527,60.9858163 C35.335527,61.5456457 35.7842993,62 36.3372509,62 L55.9960824,62 C56.549034,62 56.9978063,61.5456457 56.9978063,60.9858163 L56.9978063,55.8900506 L58.6511516,55.8900506 C63.6222064,55.8900506 67.6666667,51.795284 67.6666667,46.7623976 C67.6661658,42.0246387 64.0814968,38.1210458 59.5141367,37.6788617 Z M34.8216427,30.0283673 L57.5106889,30.0283673 L57.5106889,37.6347447 L34.8216427,37.6347447 L34.8216427,30.0283673 Z M54.9938576,59.9711256 L37.338474,59.9711256 L37.338474,51.3262241 L54.9938576,51.3262241 L54.9938576,59.9711256 Z M58.6506507,53.8616832 L56.9973054,53.8616832 L56.9973054,51.3262241 L59.3763997,51.3262241 C59.9293513,51.3262241 60.3781236,50.8718698 60.3781236,50.3120404 C60.3781236,49.7522111 59.9293513,49.2978568 59.3763997,49.2978568 L32.9559319,49.2978568 C32.4029803,49.2978568 31.954208,49.7522111 31.954208,50.3120404 C31.954208,50.8718698 32.4029803,51.3262241 32.9559319,51.3262241 L35.3350262,51.3262241 L35.3350262,53.8616832 L33.6816809,53.8616832 C29.8150266,53.8616832 26.6696136,50.6771466 26.6696136,46.7623976 C26.6696136,42.8476487 29.8150266,39.6631121 33.6816809,39.6631121 L58.6506507,39.6631121 C62.517305,39.6631121 65.662718,42.8476487 65.662718,46.7623976 C65.662718,50.6771466 62.517305,53.8616832 58.6506507,53.8616832 Z M54.6963456,32.8173724 L54.430388,32.8173724 C53.8774364,32.8173724 53.4286641,33.2717266 53.4286641,33.831556 C53.4286641,34.3913854 53.8774364,34.8457397 54.430388,34.8457397 L54.6963456,34.8457397 C55.2492972,34.8457397 55.6980695,34.3913854 55.6980695,33.831556 C55.6980695,33.2717266 55.2497981,32.8173724 54.6963456,32.8173724 Z M51.9416049,32.8173724 L51.6756472,32.8173724 C51.1226956,32.8173724 50.6739233,33.2717266 50.6739233,33.831556 C50.6739233,34.3913854 51.1226956,34.8457397 51.6756472,34.8457397 L51.9416049,34.8457397 C52.4945565,34.8457397 52.9433288,34.3913854 52.9433288,33.831556 C52.9433288,33.2717266 52.4950574,32.8173724 51.9416049,32.8173724 Z" id="ic_print"></path>
                </g>
            </g>
        </g>
    </g>
</svg>