<svg xmlns="http://www.w3.org/2000/svg" viewBox="0 0 16 16">
  <defs>
    <style>
      .cls-1 {
        fill: #54da67;
      }
    </style>
  </defs>
  <g id="ic_enviado_" transform="translate(0)">
    <g id="log-btc" transform="translate(-157 -68)">
      <path id="ic_enviar" class="cls-1" d="M157,74.586a.326.326,0,0,0,.162.3l5.7,3.247,3.249,5.7A.324.324,0,0,0,166.4,84h.022a.325.325,0,0,0,.284-.2l6.267-15.338a.325.325,0,0,0-.433-.433L157.2,74.307A.325.325,0,0,0,157,74.586Zm9.351,8.351-2.841-4.979,8.247-8.247ZM171.3,69.253,163.047,77.5l-4.981-2.84Z"/>
    </g>
  </g>
</svg>
