<?xml version="1.0" encoding="UTF-8"?>
<svg width="29px" height="11px" viewBox="0 0 29 11" version="1.1" xmlns="http://www.w3.org/2000/svg" xmlns:xlink="http://www.w3.org/1999/xlink">
    <!-- Generator: Sketch 48.2 (47327) - http://www.bohemiancoding.com/sketch -->
    <title>xxhdpi/ic_comprar</title>
    <desc>Created with Sketch.</desc>
    <defs></defs>
    <g id="home-cryptomoedas" stroke="none" stroke-width="1" fill="none" fill-rule="evenodd" transform="translate(-226.000000, -539.000000)">
        <path d="M226.423028,540.493302 L231.260434,540.448726 C231.393717,540.448726 231.505157,540.493302 231.594756,540.582454 C231.668752,540.686317 231.706196,540.790625 231.706196,540.894487 L231.706196,541.629994 L232.797867,541.585418 L232.8206,541.56313 L235.338263,540.181269 C236.765146,539.393608 237.589805,539 237.812686,539 C238.080143,539 238.615503,539.193015 239.417428,539.57949 L240.710137,540.203557 C241.423356,540.426438 242.352324,540.537878 243.496148,540.537878 C243.793026,540.537878 243.94191,540.686317 243.94191,540.98364 L243.964644,541.161944 L243.964644,541.228809 L243.94191,541.496266 C244.997028,541.45169 245.999992,541.340249 246.950802,541.161944 C248.362083,540.894487 249.387781,540.537878 250.026558,540.092116 C250.249439,539.943678 250.449586,539.965966 250.628336,540.158981 C251.787317,541.540842 252.901721,542.506808 253.971549,543.056432 C254.149854,543.160294 254.22385,543.301601 254.19443,543.479905 C254.19443,543.65821 254.11241,543.784807 253.948815,543.858803 C252.894589,544.349141 251.876915,544.70575 250.895347,544.928631 C249.840229,545.196088 248.748559,545.322239 247.618999,545.307529 L247.484824,545.396681 C246.296423,545.990881 244.602083,546.681812 242.404032,547.469473 C240.367792,548.182692 239.179392,548.539301 238.837938,548.539301 C238.005701,548.539301 236.563662,548.212558 234.513603,547.558625 C233.562794,547.261302 232.730556,546.979135 232.017338,546.711678 L231.683016,546.756254 L231.63844,548.249556 C231.63844,548.501857 231.504266,548.643164 231.237255,548.67303 L226.46805,549.074215 L226.445762,549.074215 C226.342345,549.074215 226.237591,549.037217 226.134174,548.962775 C226.044576,548.873623 226,548.762182 226,548.628454 L226,540.939064 C226,540.820045 226.037444,540.716183 226.11144,540.62703 C226.200147,540.537878 226.304901,540.493302 226.423028,540.493302 Z M233.109454,542.410077 C233.050168,542.454653 232.976171,542.476942 232.886573,542.476942 L231.706196,542.521518 L231.706196,545.574986 C231.854189,545.574986 231.958497,545.62714 232.017783,545.731002 L232.240664,545.842443 C233.295782,546.213762 234.149862,546.503507 234.803794,546.711678 C236.765146,547.335745 238.109563,547.647778 238.838384,547.647778 C239.075975,547.647778 240.167645,547.305878 242.114733,546.622526 C243.481438,546.132188 244.722439,545.648982 245.836843,545.1738 C245.256907,545.084648 244.648442,544.950919 244.00922,544.772615 C243.786339,544.728038 243.563458,544.661174 243.340577,544.572022 L243.296001,544.549734 C242.656779,544.252411 242.129443,544.02953 241.713101,543.881091 C241.118455,543.688076 240.657983,543.502194 240.33124,543.323889 C239.751304,543.279313 239.149971,543.153162 238.525459,542.944991 C237.738244,542.677534 237.040181,542.49923 236.430825,542.410077 C236.311361,542.395367 236.215076,542.335635 236.14108,542.231773 C236.081793,542.12791 236.059059,542.01647 236.074215,541.897451 C236.118791,541.615284 236.289964,541.488688 236.586841,541.518554 C237.210908,541.622416 237.953547,541.815877 238.81565,542.098044 C239.364828,542.306215 239.915344,542.417655 240.464523,542.432365 L240.710137,542.432365 C241.215185,542.432365 241.727811,542.313347 242.24757,542.075756 C242.545338,541.942027 242.768219,541.800721 242.916212,541.652282 C242.9911,541.57784 243.035676,541.503844 243.050387,541.429401 C242.024689,541.414691 241.141189,541.288541 240.39855,541.050504 L239.038531,540.381861 C238.458595,540.099694 238.064987,539.9361 237.857262,539.891523 C237.634381,539.965966 236.936319,540.322575 235.762628,540.961352 L233.266362,542.343213 L233.109454,542.410077 Z M226.891523,541.384825 L226.891523,548.138116 L230.769205,547.826082 L230.814673,541.340249 L226.891523,541.384825 Z M243.652165,543.747363 L244.253943,543.925667 C245.323771,544.22299 246.379335,544.386139 247.419743,544.416005 C248.608144,544.445871 249.693128,544.326853 250.673358,544.059396 C251.32729,543.910957 252.033377,543.688076 252.790726,543.390753 C251.958489,542.841129 251.097277,542.053468 250.205754,541.028216 C249.462223,541.444557 248.429839,541.786011 247.107264,542.053468 C245.97815,542.261193 244.745173,542.380211 243.407887,542.410077 C243.214427,542.588382 242.947416,542.744399 242.605071,542.878127 C242.441476,542.967279 242.278773,543.034144 242.114733,543.07872 C242.515918,543.212448 243.027653,543.435329 243.652165,543.747363 Z" id="ic_comprar" fill="#FFFFFF" fill-rule="nonzero"></path>
    </g>
</svg>