<svg xmlns="http://www.w3.org/2000/svg" width="63" height="60" viewBox="0 0 63 60">
    <g fill="none" fill-rule="nonzero">
        <ellipse cx="45.915" cy="37.5" fill="#FFF" rx="2.136" ry="2.143"/>
        <path fill="#FFF" d="M27.453.485a1.741 1.741 0 0 0-2.412 0L18.336 7.25H5.716C2.562 7.253.005 9.83 0 13.01v12.704a1.71 1.71 0 0 0 1.703 1.717 1.71 1.71 0 0 0 1.704-1.717v-7.437a5.639 5.639 0 0 0 2.31.495H50.98a2.387 2.387 0 0 1 2.378 2.396v8H44.5c-2.323.01-4.54.98-6.133 2.685a8.47 8.47 0 0 0-2.316 6.38c.365 4.526 4.146 7.995 8.653 7.937h8.654v7.945a2.442 2.442 0 0 1-2.433 2.452H34.007a1.71 1.71 0 0 0-1.703 1.716A1.71 1.71 0 0 0 34.007 60h16.899c3.223-.004 5.835-2.636 5.839-5.885V46.17h2.385c2.136-.004 3.866-1.748 3.87-3.9v-9.202c-.004-2.144-1.722-3.885-3.85-3.9h-2.385v-8c-.018-3.207-2.602-5.799-5.784-5.802h-.17v-2.864C50.805 9.6 48.47 7.25 45.59 7.25H34.164L27.453.485zM59.15 32.601c.256 0 .464.21.464.467v9.202a.465.465 0 0 1-.464.467H44.705c-2.704.059-4.994-1.997-5.247-4.71a5.091 5.091 0 0 1 1.345-3.799 5.01 5.01 0 0 1 3.67-1.606l14.677-.02zM10.31 15.366H5.716a2.319 2.319 0 0 1-2.31-2.328 2.319 2.319 0 0 1 2.31-2.328h9.212l-4.62 4.656zm35.28-4.684c.998 0 1.806.815 1.806 1.82v2.864h-5.212l-4.62-4.656 8.027-.028zm-30.463 4.684l11.12-11.234 11.126 11.234H15.127z"/>
        <path fill="#4CD566" d="M1.749 50.652c4.178.004 7.564 3.401 7.567 7.593 0 .97.783 1.755 1.749 1.755.966 0 1.749-.786 1.749-1.755-.008-6.128-4.958-11.094-11.065-11.102-.966 0-1.749.785-1.749 1.754 0 .97.783 1.755 1.749 1.755z"/>
        <path fill="#4CD566" d="M1.705 41.994c8.376.007 15.165 6.819 15.172 15.223 0 .945.764 1.712 1.706 1.712s1.705-.767 1.705-1.712c-.011-10.293-8.324-18.634-18.583-18.646-.941 0-1.705.767-1.705 1.712s.764 1.71 1.705 1.71z"/>
        <path fill="#4CD566" d="M1.686 35.528c12.532.01 22.69 10.202 22.704 22.78A1.69 1.69 0 0 0 26.076 60a1.69 1.69 0 0 0 1.687-1.692c-.019-14.446-11.684-26.15-26.077-26.165A1.69 1.69 0 0 0 0 33.835a1.69 1.69 0 0 0 1.686 1.693z"/>
    </g>
</svg>
