<?xml version="1.0" encoding="UTF-8"?>
<svg width="16px" height="16px" viewBox="0 0 16 16" version="1.1" xmlns="http://www.w3.org/2000/svg" xmlns:xlink="http://www.w3.org/1999/xlink">
    <!-- Generator: Sketch 49.3 (51167) - http://www.bohemiancoding.com/sketch -->
    <title>mdpi/ic_enviar</title>
    <desc>Created with Sketch.</desc>
    <defs></defs>
    <g id="Symbols" stroke="none" stroke-width="1" fill="none" fill-rule="evenodd">
        <g id="log-btc" transform="translate(-157.000000, -68.000000)" fill="#FF1C38" fill-rule="nonzero">
            <path d="M157.000712,74.586133 C156.992518,74.7098604 157.055543,74.8274493 157.163138,74.8891777 L162.865375,78.1360851 L166.113896,83.83549 C166.171409,83.9368478 166.278853,83.9996299 166.395435,84 L166.417091,84 C166.541645,83.9942017 166.651887,83.9176595 166.700796,83.8030209 L172.968275,68.4646301 C173.027605,68.3404656 173.002189,68.1924057 172.904844,68.0951089 C172.807499,67.9978121 172.659365,67.9724091 172.535139,68.0317091 L157.199955,74.3068989 C157.085763,74.3544644 157.008512,74.4627286 157.000712,74.586133 Z M166.352121,82.937179 L163.510748,77.9585875 L171.75766,69.7114426 L166.352121,82.937179 Z M171.298535,69.2525463 L163.047292,77.4953621 L158.066227,74.6554003 L171.298535,69.2525463 Z" id="ic_enviar"></path>
        </g>
    </g>
</svg>