<?xml version="1.0" encoding="UTF-8"?>
<svg width="18px" height="18px" viewBox="0 0 18 18" version="1.1" xmlns="http://www.w3.org/2000/svg" xmlns:xlink="http://www.w3.org/1999/xlink">
    <!-- Generator: Sketch 48.2 (47327) - http://www.bohemiancoding.com/sketch -->
    <title>hdpi/ic_enviar</title>
    <desc>Created with Sketch.</desc>
    <defs></defs>
    <g id="home-cryptomoedas" stroke="none" stroke-width="1" fill="none" fill-rule="evenodd" transform="translate(-52.000000, -532.000000)">
        <path d="M52.0007981,539.383125 C51.9916168,539.521825 52.0622338,539.653643 52.1827889,539.722841 L58.5718825,543.362659 L62.2117003,549.751753 C62.2761412,549.865376 62.396527,549.935755 62.5271512,549.93617 L62.5514166,549.93617 C62.6909727,549.92967 62.8144937,549.843866 62.869294,549.715355 L69.8917158,532.520855 C69.9581918,532.381666 69.9297147,532.215689 69.820644,532.106618 C69.7115733,531.997547 69.5455966,531.96907 69.4064068,532.035546 L52.2240402,539.070101 C52.096093,539.123422 52.0095378,539.244788 52.0007981,539.383125 Z M62.4786202,548.744737 L59.2949929,543.163683 L68.5352771,533.918545 L62.4786202,548.744737 Z M68.0208495,533.404118 L58.7757123,542.644402 L53.1946583,539.460775 L68.0208495,533.404118 Z" id="ic_enviar" fill="#FFFFFF" fill-rule="nonzero"></path>
    </g>
</svg>