<?xml version="1.0" encoding="UTF-8"?>
<svg width="56px" height="56px" viewBox="0 0 56 56" version="1.1" xmlns="http://www.w3.org/2000/svg" xmlns:xlink="http://www.w3.org/1999/xlink">
    <!-- Generator: Sketch 48.2 (47327) - http://www.bohemiancoding.com/sketch -->
    <title>xhdpi/ic_receber_</title>
    <desc>Created with Sketch.</desc>
    <defs></defs>
    <g id="recebidos" stroke="none" stroke-width="1" fill="none" fill-rule="evenodd" transform="translate(-152.000000, -222.000000)">
        <path d="M152.002493,245.051465 C151.973813,245.484511 152.194402,245.896073 152.570984,246.112122 L172.528813,257.476298 L183.898636,277.424215 C184.099933,277.778967 184.475986,277.998704 184.884021,278 L184.95982,278 C185.395756,277.979706 185.781603,277.711808 185.952784,277.310573 L207.888963,223.626205 C208.096616,223.191629 208.007661,222.67342 207.666953,222.332881 C207.326245,221.992343 206.807778,221.903432 206.372987,222.110982 L152.699842,244.074146 C152.300169,244.240625 152.029794,244.61955 152.002493,245.051465 Z M184.991597,274 L175,256.684124 L204,228 L184.991597,274 Z M202,226 L173.315876,255 L156,245.008403 L202,226 Z" id="ic_receber_" fill="#4CD566" fill-rule="nonzero" transform="translate(180.000000, 250.000000) scale(1, -1) translate(-180.000000, -250.000000) "></path>
    </g>
</svg>