<?xml version="1.0" encoding="UTF-8"?>
<svg width="18px" height="18px" viewBox="0 0 18 18" version="1.1" xmlns="http://www.w3.org/2000/svg" xmlns:xlink="http://www.w3.org/1999/xlink">
    <!-- Generator: Sketch 48.2 (47327) - http://www.bohemiancoding.com/sketch -->
    <title>xhdpi/ic_receber</title>
    <desc>Created with Sketch.</desc>
    <defs></defs>
    <g id="home-cryptomoedas" stroke="none" stroke-width="1" fill="none" fill-rule="evenodd" transform="translate(-107.000000, -532.000000)">
        <path d="M107.000798,539.383125 C106.991617,539.521825 107.062234,539.653643 107.182789,539.722841 L113.571882,543.362659 L117.2117,549.751753 C117.276141,549.865376 117.396527,549.935755 117.527151,549.93617 L117.551417,549.93617 C117.690973,549.92967 117.814494,549.843866 117.869294,549.715355 L124.891716,532.520855 C124.958192,532.381666 124.929715,532.215689 124.820644,532.106618 C124.711573,531.997547 124.545597,531.96907 124.406407,532.035546 L107.22404,539.070101 C107.096093,539.123422 107.009538,539.244788 107.000798,539.383125 Z M117.47862,548.744737 L114.294993,543.163683 L123.535277,533.918545 L117.47862,548.744737 Z M123.020849,533.404118 L113.775712,542.644402 L108.194658,539.460775 L123.020849,533.404118 Z" id="ic_receber" fill="#FFFFFF" fill-rule="nonzero" transform="translate(115.963631, 540.968085) scale(1, -1) translate(-115.963631, -540.968085) "></path>
    </g>
</svg>