<?xml version="1.0" encoding="UTF-8"?>
<svg width="81px" height="23px" viewBox="0 0 81 23" version="1.1" xmlns="http://www.w3.org/2000/svg" xmlns:xlink="http://www.w3.org/1999/xlink">
    <!-- Generator: Sketch 49.3 (51167) - http://www.bohemiancoding.com/sketch -->
    <title>logo-lunes</title>
    <desc>Created with Sketch.</desc>
    <defs></defs>
    <g id="Page-1" stroke="none" stroke-width="1" fill="none" fill-rule="evenodd">
        <g id="5.0" transform="translate(-36.000000, -27.000000)">
            <g id="head-lunes-wallet">
                <g id="logo-lunes" transform="translate(37.000000, 28.000000)">
                    <path d="M4.64721507,19.0266881 L9.41188678,19.0266881 C9.80410061,19.0266881 10,19.3556397 10,20.0131452 C10,20.6714462 9.80410061,21 9.41188678,21 L4.64721507,21 C2.96090313,21 1.76475471,20.6101904 1.05876982,19.8301733 C0.352784926,19.0509518 0,17.7864571 0,16.0386779 L0,0.648356852 C0,0.215986362 0.392213829,0 1.17664149,0 C1.96023906,0 2.35328298,0.215986362 2.35328298,0.648356852 L2.35328298,16.0386779 C2.35328298,17.1289516 2.52469494,17.8994223 2.86793393,18.3504877 C3.21034282,18.8015532 3.80385158,19.0266881 4.64721507,19.0266881" id="Fill-1" fill="#FFFFFF"></path>
                    <path d="M4.64721507,19.0266881 L9.41188678,19.0266881 C9.80410061,19.0266881 10,19.3556397 10,20.0131452 C10,20.6714462 9.80410061,21 9.41188678,21 L4.64721507,21 C2.96090313,21 1.76475471,20.6101904 1.05876982,19.8301733 C0.352784926,19.0509518 0,17.7864571 0,16.0386779 L0,0.648356852 C0,0.215986362 0.392213829,0 1.17664149,0 C1.96023906,0 2.35328298,0.215986362 2.35328298,0.648356852 L2.35328298,16.0386779 C2.35328298,17.1289516 2.52469494,17.8994223 2.86793393,18.3504877 C3.21034282,18.8015532 3.80385158,19.0266881 4.64721507,19.0266881 Z" id="Stroke-3" stroke="#FFFFFF" stroke-width="0.6"></path>
                    <path d="M25,3.66775912 L25,16.4125358 C25,18.0192544 24.4501727,19.18517 23.3509092,19.9106923 C22.2516457,20.6366243 20.7965196,21 18.986313,21 C17.1753243,21 15.7252819,20.6366243 14.6354038,19.9106923 C13.5451346,19.18517 13,18.0192544 13,16.4125358 L13,3.66775912 C13,3.22285948 13.3699407,3 14.1086489,3 C14.8473571,3 15.2172978,3.22285948 15.2172978,3.66775912 L15.2172978,16.7029906 C15.2172978,18.2126178 16.4784592,18.9676362 19,18.9676362 C21.5219318,18.9676362 22.7827022,18.2126178 22.7827022,16.7029906 L22.7827022,3.66775912 C22.7827022,3.22285948 23.1522518,3 23.8913511,3 C24.6304504,3 25,3.22285948 25,3.66775912" id="Fill-5" fill="#FFFFFF"></path>
                    <path d="M25,3.66775912 L25,16.4125358 C25,18.0192544 24.4501727,19.18517 23.3509092,19.9106923 C22.2516457,20.6366243 20.7965196,21 18.986313,21 C17.1753243,21 15.7252819,20.6366243 14.6354038,19.9106923 C13.5451346,19.18517 13,18.0192544 13,16.4125358 L13,3.66775912 C13,3.22285948 13.3699407,3 14.1086489,3 C14.8473571,3 15.2172978,3.22285948 15.2172978,3.66775912 L15.2172978,16.7029906 C15.2172978,18.2126178 16.4784592,18.9676362 19,18.9676362 C21.5219318,18.9676362 22.7827022,18.2126178 22.7827022,16.7029906 L22.7827022,3.66775912 C22.7827022,3.22285948 23.1522518,3 23.8913511,3 C24.6304504,3 25,3.22285948 25,3.66775912 Z" id="Stroke-7" stroke="#FFFFFF" stroke-width="0.6"></path>
                    <path d="M43,7.58715889 L43,20.3322257 C43,20.7775451 42.6304504,21 41.8913511,21 C41.1522518,21 40.7827022,20.7775451 40.7827022,20.3322257 L40.7827022,7.29669754 C40.7827022,5.78703598 39.5219318,5.03241004 37,5.03241004 C34.4784592,5.03241004 33.2172978,5.78703598 33.2172978,7.29669754 L33.2172978,20.3322257 C33.2172978,20.7775451 32.8473571,21 32.1086489,21 C31.3699407,21 31,20.7775451 31,20.3322257 L31,7.58715889 C31,5.98081344 31.5451346,4.81446162 32.6354038,4.08892278 C33.7252819,3.36256458 35.1753243,3 36.986313,3 C38.7965196,3 40.2516457,3.36256458 41.3509092,4.08892278 C42.4501727,4.81446162 43,5.98081344 43,7.58715889" id="Fill-9" fill="#FFFFFF"></path>
                    <path d="M43,7.58715889 L43,20.3322257 C43,20.7775451 42.6304504,21 41.8913511,21 C41.1522518,21 40.7827022,20.7775451 40.7827022,20.3322257 L40.7827022,7.29669754 C40.7827022,5.78703598 39.5219318,5.03241004 37,5.03241004 C34.4784592,5.03241004 33.2172978,5.78703598 33.2172978,7.29669754 L33.2172978,20.3322257 C33.2172978,20.7775451 32.8473571,21 32.1086489,21 C31.3699407,21 31,20.7775451 31,20.3322257 L31,7.58715889 C31,5.98081344 31.5451346,4.81446162 32.6354038,4.08892278 C33.7252819,3.36256458 35.1753243,3 36.986313,3 C38.7965196,3 40.2516457,3.36256458 41.3509092,4.08892278 C42.4501727,4.81446162 43,5.98081344 43,7.58715889 Z" id="Stroke-11" stroke="#FFFFFF" stroke-width="0.6"></path>
                    <path d="M51.1916943,7.22846392 L51.1916943,11.3710523 L56.3425046,10.8287865 C57.3836464,10.7142857 58.054802,10.4856874 58.3559715,10.1429915 C58.6579142,9.79989249 58.8083057,9.19070017 58.8083057,8.31420508 L58.8083057,7.22846392 C58.8083057,5.74277651 57.5386771,5.00013439 55.0001933,5.00013439 C52.4609362,5.00013439 51.1916943,5.74277651 51.1916943,7.22846392 M61,7.45706222 L61,8.31420508 C61,9.93334229 60.6802732,11.0477086 60.0412062,11.656901 C59.401366,12.2668996 58.2330294,12.6571697 56.5342633,12.8285177 L51.1916943,13.3711867 L51.1916943,16.7715361 C51.1916943,18.2568203 52.3785882,18.9998656 54.7535359,18.9998656 C57.4563291,18.9998656 58.8083057,18.3527752 58.8083057,17.0569816 L58.8083057,15.9716436 C58.8083057,15.533396 59.1736525,15.3144739 59.9039595,15.3144739 C60.6346532,15.3144739 61,15.533396 61,15.9716436 L61,16.7715361 C61,19.590512 58.9907858,21 54.9723574,21 C53.2005219,21 51.7623313,20.6379519 50.6573988,19.9142588 C49.5520796,19.1905658 49,18.0475743 49,16.4856874 L49,7.51431259 C49,5.93347668 49.5841683,4.78564709 50.7532781,4.07163016 C51.9220014,3.35680688 53.4471794,3 55.3288121,3 C57.2096717,3 58.625439,3.34269587 59.5757273,4.02849079 C60.5248558,4.71428571 61,5.85727725 61,7.45706222" id="Fill-13" fill="#FFFFFF"></path>
                    <path d="M51.1916943,7.22846392 L51.1916943,11.3710523 L56.3425046,10.8287865 C57.3836464,10.7142857 58.054802,10.4856874 58.3559715,10.1429915 C58.6579142,9.79989249 58.8083057,9.19070017 58.8083057,8.31420508 L58.8083057,7.22846392 C58.8083057,5.74277651 57.5386771,5.00013439 55.0001933,5.00013439 C52.4609362,5.00013439 51.1916943,5.74277651 51.1916943,7.22846392 Z M61,7.45706222 L61,8.31420508 C61,9.93334229 60.6802732,11.0477086 60.0412062,11.656901 C59.401366,12.2668996 58.2330294,12.6571697 56.5342633,12.8285177 L51.1916943,13.3711867 L51.1916943,16.7715361 C51.1916943,18.2568203 52.3785882,18.9998656 54.7535359,18.9998656 C57.4563291,18.9998656 58.8083057,18.3527752 58.8083057,17.0569816 L58.8083057,15.9716436 C58.8083057,15.533396 59.1736525,15.3144739 59.9039595,15.3144739 C60.6346532,15.3144739 61,15.533396 61,15.9716436 L61,16.7715361 C61,19.590512 58.9907858,21 54.9723574,21 C53.2005219,21 51.7623313,20.6379519 50.6573988,19.9142588 C49.5520796,19.1905658 49,18.0475743 49,16.4856874 L49,7.51431259 C49,5.93347668 49.5841683,4.78564709 50.7532781,4.07163016 C51.9220014,3.35680688 53.4471794,3 55.3288121,3 C57.2096717,3 58.625439,3.34269587 59.5757273,4.02849079 C60.5248558,4.71428571 61,5.85727725 61,7.45706222 Z" id="Stroke-15" stroke="#4CD566" stroke-width="0.6" fill="#4CD566"></path>
                    <path d="M76.721901,8.37145545 L76.721901,7.2570891 C76.721901,5.7528558 75.5275845,5.00013439 73.1385595,5.00013439 C72.1202352,5.00013439 71.2869182,5.17148233 70.6386085,5.5141782 C69.9902989,5.85727725 69.666536,6.39994624 69.666536,7.14299153 L69.666536,7.77153608 C69.666536,8.79962371 69.7958844,9.47171079 70.055365,9.78578148 C70.3144537,10.0998522 70.8698677,10.3619137 71.721999,10.571563 L74.1388535,11.2001075 C76.4349829,11.809703 77.7954924,12.3999462 78.22195,12.9712404 C78.7401274,13.6763876 79,14.6097299 79,15.7712673 L79,16.7997581 C79,18.2858487 78.4394904,19.3570757 77.3188633,20.0142454 C76.1986281,20.6714151 74.7499265,21 72.9723665,21 C70.0831945,21 68.2499755,20.2476818 67.4719255,18.7430453 C67.1571779,18.1140976 67,17.3525064 67,16.4570622 L67,15.542669 C67,15.2955248 67.0834885,15.1286117 67.2500735,15.0427362 C67.4166585,14.9572638 67.7035767,14.9145276 68.11122,14.9145276 C68.833219,14.9145276 69.1946105,15.1523989 69.1946105,15.6285446 L69.1946105,16.9138557 C69.1946105,17.6762532 69.5183733,18.2140841 70.166291,18.5281548 C70.8146007,18.8430319 71.7592357,18.9998656 72.999804,18.9998656 C75.5369917,18.9998656 76.8053895,18.3334229 76.8053895,16.9997312 L76.8053895,15.4858218 C76.8053895,14.8955786 76.5874571,14.4383819 76.1527683,14.114232 C75.7172954,13.7904851 74.9721705,13.4856874 73.9166095,13.2002419 L71.4719255,12.5712942 C69.8237139,12.152802 68.7450269,11.6528692 68.2362567,11.0710926 C67.7267026,10.4905255 67.4719255,9.36204811 67.4719255,7.68566053 L67.4719255,7.34296466 C67.5091622,5.81937912 68.0371387,4.71428571 69.055463,4.02889397 C70.0737874,3.34269587 71.4166585,3 73.0832925,3 C76.9719745,3 78.9165115,4.48568741 78.9165115,7.45706222 L78.9165115,8.457331 C78.9165115,8.85727725 78.5504165,9.05725037 77.8194023,9.05725037 C77.0876041,9.05725037 76.721901,8.82865206 76.721901,8.37145545" id="Fill-17" fill="#FFFFFF"></path>
                    <path d="M76.721901,8.37145545 L76.721901,7.2570891 C76.721901,5.7528558 75.5275845,5.00013439 73.1385595,5.00013439 C72.1202352,5.00013439 71.2869182,5.17148233 70.6386085,5.5141782 C69.9902989,5.85727725 69.666536,6.39994624 69.666536,7.14299153 L69.666536,7.77153608 C69.666536,8.79962371 69.7958844,9.47171079 70.055365,9.78578148 C70.3144537,10.0998522 70.8698677,10.3619137 71.721999,10.571563 L74.1388535,11.2001075 C76.4349829,11.809703 77.7954924,12.3999462 78.22195,12.9712404 C78.7401274,13.6763876 79,14.6097299 79,15.7712673 L79,16.7997581 C79,18.2858487 78.4394904,19.3570757 77.3188633,20.0142454 C76.1986281,20.6714151 74.7499265,21 72.9723665,21 C70.0831945,21 68.2499755,20.2476818 67.4719255,18.7430453 C67.1571779,18.1140976 67,17.3525064 67,16.4570622 L67,15.542669 C67,15.2955248 67.0834885,15.1286117 67.2500735,15.0427362 C67.4166585,14.9572638 67.7035767,14.9145276 68.11122,14.9145276 C68.833219,14.9145276 69.1946105,15.1523989 69.1946105,15.6285446 L69.1946105,16.9138557 C69.1946105,17.6762532 69.5183733,18.2140841 70.166291,18.5281548 C70.8146007,18.8430319 71.7592357,18.9998656 72.999804,18.9998656 C75.5369917,18.9998656 76.8053895,18.3334229 76.8053895,16.9997312 L76.8053895,15.4858218 C76.8053895,14.8955786 76.5874571,14.4383819 76.1527683,14.114232 C75.7172954,13.7904851 74.9721705,13.4856874 73.9166095,13.2002419 L71.4719255,12.5712942 C69.8237139,12.152802 68.7450269,11.6528692 68.2362567,11.0710926 C67.7267026,10.4905255 67.4719255,9.36204811 67.4719255,7.68566053 L67.4719255,7.34296466 C67.5091622,5.81937912 68.0371387,4.71428571 69.055463,4.02889397 C70.0737874,3.34269587 71.4166585,3 73.0832925,3 C76.9719745,3 78.9165115,4.48568741 78.9165115,7.45706222 L78.9165115,8.457331 C78.9165115,8.85727725 78.5504165,9.05725037 77.8194023,9.05725037 C77.0876041,9.05725037 76.721901,8.82865206 76.721901,8.37145545 Z" id="Stroke-19" stroke="#FFFFFF" stroke-width="0.6"></path>
                </g>
            </g>
        </g>
    </g>
</svg>