<?xml version="1.0" encoding="UTF-8"?>
<svg width="92px" height="96px" viewBox="0 0 92 96" version="1.1" xmlns="http://www.w3.org/2000/svg" xmlns:xlink="http://www.w3.org/1999/xlink">
    <!-- Generator: Sketch 49.3 (51167) - http://www.bohemiancoding.com/sketch -->
    <title>ic_email</title>
    <desc>Created with Sketch.</desc>
    <defs></defs>
    <g id="Page-1" stroke="none" stroke-width="1" fill="none" fill-rule="evenodd">
        <g id="0.4" transform="translate(-211.000000, -326.000000)" fill="#4CD566" fill-rule="nonzero">
            <g id="fluxo_login">
                <g id="05_email_reset">
                    <g id="Group-19" transform="translate(34.000000, 326.000000)">
                        <g id="Group-18">
                            <g id="ic_email" transform="translate(177.000000, 0.000000)">
                                <path d="M30.12,30.8 C30.12,29.4192881 31.2392881,28.3 32.62,28.3 L59.38,28.3 C60.7607119,28.3 61.88,29.4192881 61.88,30.8 C61.88,32.1807119 60.7607119,33.3 59.38,33.3 L32.62,33.3 C31.2392881,33.3 30.12,32.1807119 30.12,30.8 Z M32.62,43.36 L59.38,43.36 C60.7607119,43.36 61.88,42.2407119 61.88,40.86 C61.88,39.4792881 60.7607119,38.36 59.38,38.36 L32.62,38.36 C31.2392881,38.36 30.12,39.4792881 30.12,40.86 C30.12,42.2407119 31.2392881,43.36 32.62,43.36 Z M53.43,50.93 C53.43,49.5492881 52.3107119,48.43 50.93,48.43 L32.62,48.43 C31.2392881,48.43 30.12,49.5492881 30.12,50.93 C30.12,52.3107119 31.2392881,53.43 32.62,53.43 L50.94,53.43 C52.3207119,53.43 53.44,52.3107119 53.44,50.93 L53.43,50.93 Z M44.38,0.93 L34.38,9.41 C33.3251361,10.3019399 33.1930601,11.8801361 34.085,12.935 C34.9769399,13.9898639 36.5551361,14.1219399 37.61,13.23 L46,6.13 L54.42,13.24 C55.1023773,13.816984 56.0407372,13.9860952 56.8816086,13.6836311 C57.7224799,13.381167 58.3381145,12.6530791 58.4966086,11.773631 C58.6551027,10.894183 58.3323773,9.99698392 57.65,9.42 L47.65,0.94 C46.7102957,0.136933163 45.3247599,0.141183273 44.39,0.95 L44.38,0.93 Z M91.11,37.68 C91.6735958,38.1544354 91.9992442,38.8532988 92,39.59 L92,86.82 C91.9944891,91.688867 88.048867,95.6344891 83.18,95.64 L8.82,95.64 C3.95113302,95.6344891 0.00551089039,91.688867 0,86.82 L0,39.59 C0.000755806272,38.8532988 0.326404211,38.1544354 0.89,37.68 L10.31,29.78 C11.3648639,28.8880602 12.9430601,29.0201362 13.835,30.075 C14.7269398,31.1298639 14.5948638,32.7080601 13.54,33.6 L6.54,39.48 L17.36,47.13 L17.36,23.13 C17.36,19.5898548 20.2298548,16.72 23.77,16.72 L68.26,16.72 C71.8001452,16.72 74.67,19.5898548 74.67,23.13 L74.67,47.13 L85.5,39.47 L78.56,33.61 C77.5051361,32.7180601 77.3730601,31.1398639 78.265,30.085 C79.1569399,29.0301361 80.7351361,28.8980601 81.79,29.79 L91.11,37.68 Z M22.33,50.68 L46,67.42 L69.67,50.68 L69.67,23.17 C69.67,22.3912785 69.0387215,21.76 68.26,21.76 L23.74,21.76 C22.9612785,21.76 22.33,22.3912785 22.33,23.17 L22.33,50.68 Z M87,44.54 L58.75,64.54 L79,80 C80.1045694,80.8284272 80.328427,82.3954305 79.4999999,83.4999999 C78.6715728,84.6045694 77.1045695,84.828427 76,84 L54.47,67.55 L47.47,72.55 C46.6042517,73.1632108 45.4457483,73.1632108 44.58,72.55 L37.58,67.55 L16.06,84 C14.9554305,84.828427 13.3884272,84.6045693 12.5600001,83.4999999 C11.7315731,82.3954305 11.9554306,80.8284272 13.06,80 L33.25,64.52 L5,44.54 L5,86.82 C5.00549533,88.9274473 6.71255269,90.6345047 8.82,90.64 L83.18,90.64 C85.2874473,90.6345047 86.9945047,88.9274473 87,86.82 L87,44.54 Z" id="Shape"></path>
                            </g>
                        </g>
                    </g>
                </g>
            </g>
        </g>
    </g>
</svg>