<?xml version="1.0" encoding="UTF-8"?>
<svg width="20px" height="11px" viewBox="0 0 20 11" version="1.1" xmlns="http://www.w3.org/2000/svg" xmlns:xlink="http://www.w3.org/1999/xlink">
    <!-- Generator: Sketch 49.3 (51167) - http://www.bohemiancoding.com/sketch -->
    <title>Arrow</title>
    <desc>Created with Sketch.</desc>
    <defs></defs>
    <g id="Page-1" stroke="none" stroke-width="1" fill="none" fill-rule="evenodd">
        <g id="0.4" transform="translate(-257.000000, -588.000000)" fill="#4CD566" fill-rule="nonzero">
            <g id="fluxo_login">
                <g id="05_email_reset">
                    <g id="Group-19" transform="translate(34.000000, 326.000000)">
                        <g id="arrow-logar" transform="translate(208.000000, 242.000000)">
                            <path d="M28.9507902,20.7565448 C28.9507902,20.9345553 29.010127,21.1422343 29.1584692,21.2905764 L32.303322,24.4354292 L16.3417106,24.4354292 C15.9263526,24.4354292 15.6,24.7617818 15.6,25.1771398 C15.6,25.5924977 15.9263526,25.9188503 16.3417106,25.9188503 L32.303322,25.9188503 L29.1584692,29.0340347 C29.010127,29.1823768 28.9507902,29.3603873 28.9507902,29.5680663 C28.9507902,29.7757453 29.010127,29.9537558 29.1584692,30.1020979 C29.4551534,30.3987821 29.9298481,30.3987821 30.1968639,30.1020979 L34.5877905,25.7111714 C34.6174589,25.6815029 34.6471273,25.6221661 34.6767958,25.5924977 C34.8251379,25.3848187 34.8251379,25.1178029 34.7361326,24.9101239 C34.7064642,24.8211187 34.6471273,24.7321134 34.5877905,24.6727766 L30.1968639,20.2225132 C29.9001797,19.9258289 29.425485,19.9258289 29.1584692,20.2225132 C29.010127,20.3708553 28.9507902,20.5488658 28.9507902,20.7565448 Z" id="Arrow"></path>
                        </g>
                    </g>
                </g>
            </g>
        </g>
    </g>
</svg>