<svg width="51" height="51" viewBox="0 0 51 51" fill="none" xmlns="http://www.w3.org/2000/svg">
<path fill-rule="evenodd" clip-rule="evenodd" d="M50.7463 25.3731C50.7463 39.3865 39.3865 50.7463 25.3731 50.7463C11.3598 50.7463 0 39.3865 0 25.3731C0 11.3598 11.3598 0 25.3731 0C39.3865 0 50.7463 11.3598 50.7463 25.3731Z" transform="translate(0.0371094 0.25293)" fill="#F7931A"/>
<path fill-rule="evenodd" clip-rule="evenodd" d="M19.9185 23.607C19.7061 24.3208 19.2283 24.9089 18.5732 25.2631C17.9181 25.6179 17.1645 25.696 16.4507 25.4834L9.30542 23.3553L10.8973 18.011L18.0422 20.1393H18.0424C19.5156 20.578 20.3574 22.1336 19.9185 23.607ZM22.3284 12.6545C22.6826 13.3096 22.7607 14.0632 22.5484 14.7772C22.1094 16.2501 20.553 17.0915 19.0806 16.6535H19.0804L11.9353 14.5255L13.5267 9.18115L20.672 11.3092C21.3858 11.5218 21.9739 11.9993 22.3284 12.6545ZM25.5269 10.9241C24.7101 9.4147 23.3544 8.31351 21.71 7.82381L20.7646 7.54242L22.0881 3.09857L18.6924 2.08719L17.3689 6.53104L14.4698 5.6676L15.7935 1.22375L14.98 0.981433L11.6846 0L10.4088 4.28349L6.39276 3.0874L5.25934 6.89337L9.2754 8.08972L5.14948 21.9429L1.13342 20.7469L0 24.5531L4.01581 25.7489L2.93922 29.3643L3.75243 29.6066L7.0479 30.5881L8.17243 26.8123L11.0784 27.6778L9.95388 31.4538L13.3359 32.4611L14.4604 28.6851L15.4124 28.9685C16.0193 29.1492 16.6392 29.2387 17.2553 29.2387C18.3082 29.2387 19.3513 28.9771 20.3036 28.4618C21.813 27.645 22.914 26.2896 23.4039 24.6447C23.919 22.9145 23.6648 21.1371 22.8455 19.6741C24.3328 18.8979 25.518 17.5463 26.0336 15.8153C26.5236 14.1704 26.3434 12.4333 25.5269 10.9241Z" transform="translate(11.6523 9.43457)" fill="white"/>
</svg>
