<svg width="57" height="57" viewBox="0 0 57 57" fill="none" xmlns="http://www.w3.org/2000/svg">
<path fill-rule="evenodd" clip-rule="evenodd" d="M56.7164 28.3582C56.7164 44.0202 44.0202 56.7164 28.3582 56.7164C12.6963 56.7164 0 44.0202 0 28.3582C0 12.6963 12.6963 0 28.3582 0C44.0202 0 56.7164 12.6963 56.7164 28.3582Z" transform="translate(0.0415039 0.065918)" fill="#0986D3"/>
<path fill-rule="evenodd" clip-rule="evenodd" d="M34.4493 8.06649L30.4199 19.7345C29.5751 22.1852 27.2659 23.8328 24.6736 23.8328H0L1.9 17.7159H24.647L28.6537 6.11687H5.50121L7.40121 0H28.7033C30.6646 0 32.515 0.955672 33.6541 2.55366C34.7933 4.15164 35.0916 6.21215 34.4493 8.06649Z" transform="translate(12.5416 16.4802)" fill="white"/>
<path fill-rule="evenodd" clip-rule="evenodd" d="M18.2857 0V0.386239L16.5079 6.11687H0L1.9 0H18.2857Z" transform="translate(9.47546 25.3381)" fill="white"/>
</svg>
