<svg width="51" height="51" viewBox="0 0 51 51" fill="none" xmlns="http://www.w3.org/2000/svg">
<path fill-rule="evenodd" clip-rule="evenodd" d="M50.7463 25.3731C50.7463 39.3865 39.3865 50.7463 25.3731 50.7463C11.3601 50.7463 0 39.3865 0 25.3731C0 11.3598 11.3601 0 25.3731 0C39.3865 0 50.7463 11.3598 50.7463 25.3731Z" transform="translate(0.231689 0.25293)" fill="#497391"/>
<path fill-rule="evenodd" clip-rule="evenodd" d="M0 22.4179L10.883 0V28.1467L0 22.4179Z" transform="translate(14.3704 6.35205)" fill="white"/>
<path fill-rule="evenodd" clip-rule="evenodd" d="M10.9216 22.4255L0 28.1543V0L10.9216 22.4255Z" transform="translate(25.9182 6.34448)" fill="white"/>
<path fill-rule="evenodd" clip-rule="evenodd" d="M0 0L10.883 5.44913V14.2115L0 0Z" transform="translate(14.3704 29.5901)" fill="white"/>
<path fill-rule="evenodd" clip-rule="evenodd" d="M10.9216 0L0 14.2115V5.44913L10.9216 0Z" transform="translate(25.9182 29.5901)" fill="white"/>
</svg>
