<svg width="51" height="51" viewBox="0 0 51 51" fill="none" xmlns="http://www.w3.org/2000/svg">
<path fill-rule="evenodd" clip-rule="evenodd" d="M25.3731 0C11.3598 0 0 11.3598 0 25.3731C0 39.3865 11.3598 50.7463 25.3731 50.7463C39.3865 50.7463 50.7463 39.3865 50.7463 25.3731C50.7463 11.3598 39.3865 0 25.3731 0Z" transform="translate(0.0163574 0.197266)" fill="#3D3E3C"/>
<path fill-rule="evenodd" clip-rule="evenodd" d="M23.2588 0C36.0836 0 46.5176 10.4339 46.5176 23.2588C46.5176 36.0834 36.0836 46.5173 23.2588 46.5173C10.4339 46.5173 0 36.0834 0 23.2588C0 10.4339 10.4339 0 23.2588 0Z" transform="translate(2.13086 2.31177)" fill="white"/>
<path fill-rule="evenodd" clip-rule="evenodd" d="M28.1403 2.72254C27.5781 1.77028 26.9184 0.860403 26.1711 0L0 26.1711C0.860403 26.9181 1.77028 27.5781 2.72254 28.1403L28.1403 2.72254Z" transform="translate(13.2388 13.4197)" fill="#B6B7BA"/>
<path fill-rule="evenodd" clip-rule="evenodd" d="M28.0457 1.9144C27.1675 1.18188 26.2371 0.544761 25.2686 0L0 25.2683C0.544761 26.2371 1.18188 27.1673 1.91466 28.0454L28.0457 1.9144Z" transform="translate(9.21167 9.39258)" fill="#B6B7BA"/>
<path fill-rule="evenodd" clip-rule="evenodd" d="M24.5612 0.892881C23.3243 0.459 22.0503 0.16391 20.7623 0L0 20.7626C0.164164 22.05 0.458746 23.3243 0.892881 24.5612L24.5612 0.892881Z" transform="translate(6.98633 7.16699)" fill="#B6B7BA"/>
<path fill-rule="evenodd" clip-rule="evenodd" d="M16.6207 0C12.5034 0.408761 8.4967 2.18869 5.34282 5.34257C2.18894 8.49645 0.408761 12.5034 0 16.6207L16.6207 0Z" transform="translate(6.92456 7.10522)" fill="#B6B7BA"/>
<path fill-rule="evenodd" clip-rule="evenodd" d="M24.8799 3.71793C24.6865 2.45485 24.3605 1.20903 23.9061 0L0 23.9058C1.20903 24.3602 2.45485 24.6865 3.71793 24.8796L24.8799 3.71793Z" transform="translate(18.8499 19.0308)" fill="#B6B7BA"/>
<path fill-rule="evenodd" clip-rule="evenodd" d="M17.2344 0L0 17.2344C4.31572 16.9391 8.54872 15.147 11.8477 11.8477C15.147 8.54846 16.9391 4.31597 17.2344 0Z" transform="translate(26.6643 26.845)" fill="#B6B7BA"/>
<path fill-rule="evenodd" clip-rule="evenodd" d="M10.8031 22.1058L11.8899 14.2945L18.7495 9.35736V4.62095L12.6224 9.02954L13.8786 0H6.38185L4.77345 14.6768L0 18.1113V22.8516L4.20966 19.822L3.30637 28.0647H10.8031H27.8351V22.1058H10.8031Z" transform="translate(12.5293 9.95215)" fill="#F8F9F7"/>
<path fill-rule="evenodd" clip-rule="evenodd" d="M4.51346 28.0648H27.8352V23.2469H10.7179L11.929 14.5447L18.7498 9.63579V6.30505L12.4441 10.8418L13.7937 1.14111H7.4641L5.88361 15.5622L1.14111 18.9746V22.3087L5.48702 19.1809L4.51346 28.0648ZM28.9759 29.2057H3.2404L4.07366 21.6042L0 24.5356V18.3897L4.8044 14.9329L6.44097 0H15.1046L13.941 8.35867L19.8905 4.07848V10.22L12.9913 15.1853L12.0291 22.1061H28.9759V29.2057Z" transform="translate(11.9587 9.38159)" fill="#3D3E3C"/>
</svg>
