<svg id="Camada_1" data-name="Camada 1" xmlns="http://www.w3.org/2000/svg" viewBox="0 0 50 50"><defs><style>.cls-1{fill:#fff;}.cls-2{fill:#4a90e2;}</style></defs><title>nano</title><circle class="cls-1" cx="25" cy="25" r="25"/><circle class="cls-2" cx="7.02" cy="30.98" r="3.02"/><path class="cls-2" d="M43,16a3,3,0,0,0-3,3c0,2.39-.38,3-3,3h-.26A3,3,0,0,0,34,25v.06c0,2.33-.45,2.9-3,2.9a.48.48,0,0,0-.31.06A3.05,3.05,0,0,0,28,31a3,3,0,0,0,3,3,3,3,0,0,0,3-2.77V31c0-2.14.69-3,3-3H37a3,3,0,0,0,3-2.83v-.19c0-2.21.7-3,3-3a3,3,0,0,0,3-3A2.94,2.94,0,0,0,43,16ZM25.28,22H25c-2.64,0-3-.63-3-3A3,3,0,0,0,16,19c0,2.39-.37,3-3,3h-.25a3,3,0,0,0-2.71,3,3,3,0,0,0,3,3,3,3,0,0,0,3-2.77V25c0-2.2.7-3,3-3s3,.82,3,3a3,3,0,0,0,3,3,3,3,0,0,0,3-3A3.05,3.05,0,0,0,25.28,22Z"/></svg>